<svg height="100" viewBox="0 0 312 100" width="312" xmlns="http://www.w3.org/2000/svg"><g fill="none" fill-rule="evenodd"><path d="m0 0h312v100h-312z"/><g transform="translate(83 27)"><path d="m57 6.5v-3c0-.55228475.4477153-1 1-1h16.5c.5522847 0 1 .44771525 1 1v3c0 .55228475-.4477153 1-1 1h-6.8443534c-.3981266 0-.7583266.23616392-.91707.60127389l-4.4345057 10.19936301c-.1101052.2532419.0059301.547793.259172.6578981.0629065.0273507.1307679.041465.199363.041465h11.7373941c.5522847 0 1 .4477153 1 1v22.5c0 .5522847-.4477153 1-1 1h-16.5c-.5522847 0-1-.4477153-1-1v-23.2920128c0-.1371902.0282286-.272913.0829299-.3987261l4.6129992-10.60989804c.1101052-.25324191-.0059301-.54779291-.259172-.65789809-.0629065-.02735066-.1307679-.04146497-.199363-.04146497h-3.2373941c-.5522847 0-1-.44771525-1-1zm13 17.5h-7.5c-.2761424 0-.5.2238576-.5.5v13.5c0 .2761424.2238576.5.5.5h7.5c.2761424 0 .5-.2238576.5-.5v-13.5c0-.2761424-.2238576-.5-.5-.5zm29-4v22.5c0 .5522847-.4477153 1-1 1h-10.5c-.5522847 0-1-.4477153-1-1v-3c0-.5522847.4477153-1 1-1h6c.2761424 0 .5-.2238576.5-.5v-13.5c0-.2761424-.2238576-.5-.5-.5h-15c-.5522847 0-1-.4477153-1-1v-19.5c0-.55228475.4477153-1 1-1h17c.5522847 0 1 .44771525 1 1v11.5c0 .5522847-.4477153 1-1 1h-3c-.5522847 0-1-.4477153-1-1v-7c0-.27614237-.2238576-.5-.5-.5h-8c-.2761424 0-.5.22385763-.5.5v10.5c0 .2761424.2238576.5.5.5h15c.5522847 0 1 .4477153 1 1zm-21.5 13v-3c0-.5522847.4477153-1 1-1h11.5c.5522847 0 1 .4477153 1 1v3c0 .5522847-.4477153 1-1 1h-11.5c-.5522847 0-1-.4477153-1-1zm32.5-25.5c-.552285 0-1-.44771525-1-1v-3c0-.55228475.447715-1 1-1h32c.552285 0 1 .44771525 1 1v3c0 .55228475-.447715 1-1 1zm27.519058 18c5.274689 0 9.480942 3.3391562 9.480942 8.55 0 5.85-4.082319 9.45-9.5 9.45 0 0 0-4.5 0-5 2.257367 0 4.082319-1.7472506 4.082319-4.45 0-5.3415204-9.177188-6.9624675-13.082319 1.0384942.5999-7.6836533 5.525002-9.5884942 9.019058-9.5884942zm-29.519058-10h36c.552285 0 1 .4477153 1 1v3c0 .5522847-.447715 1-1 1h-24.297908c-.421324 0-.797453.264077-.940554.6603555l-6.019658 16.6698223c-.09379.2597268.040728.5463089.300455.6400991.054459.0196659.111921.0297231.169822.0297231h24.287843v5h-29.5c-.552285 0-1-.4477153-1-1v-3.8249755c0-.1158028.020114-.2307257.059446-.3396445l6.198674-17.1655578c.09379-.2597268-.040728-.5463089-.300455-.6400991-.054459-.0196659-.111921-.0297231-.169822-.0297231h-4.787843c-.552285 0-1-.4477153-1-1v-3c0-.5522847.447715-1 1-1z" fill="#2d3131"/><path d="m43 18.5-23 .0005238c-1.104365 0-1.9997107.8951113-1.9999999 1.9994763l-.0023735 4.9999998c-.0002893 1.1045695.8949067 2.0002344 1.9994761 2.0005237.0001802.0000001.0003603.0000001.0005405.0000001l14.0023568-.0006737c1.1045695-.0000092 2.0000075.8954138 2.0000167 1.9999833v.0000167l-.0000167.5v.50015c0 3.3137085-2.6862915 6-6 6l-19.0014885-.0000551c-1.104411 0-1.99972151-.8952859-1.99975195-1.9996968l-.00074427-19.0002481c-.00009134-3.3137085 2.68612612-6.00007404 5.99983462-6.00016539h.0001654l27.9964027-.00107544c1.1040851 0 1.9993148-.89467466 1.9999996-1.99875955l.005582-4.99999924c.0006851-1.10456928-.8941899-2.00055498-1.9987592-2.00124006-.0004134-.00000026-.0008269-.00000038-.0012404-.00000038l-28 .00132276c-8.28423895 0-14.99995433 6.71567835-15 14.9999173l-.00024809 28.000011c-.00000609 1.1045695.89541947 2.000005 1.99998897 2.0000111h.00001103l29.50024259-.0000111c7.4558472 0 13.5000055-6.0441583 13.5000055-13.5000055v-11.5000055c0-1.1045695-.8954305-2-2-2z" fill="#c71d23"/></g></g></svg>