<svg height="42" width="152" xmlns="http://www.w3.org/2000/svg"><g fill="none" fill-rule="evenodd"><path d="M20.421 28.492c-4.092.03-7.427-2.675-7.65-7.717-.225-4.705 3.867-7.86 7.762-7.944 4.484-.112 7.174 5.07 7.174 5.07l11.574-4.31S34.518 1.112 21.627 1.112c-12.05 0-20.373 8.45-20.373 19.917 0 10.196 7.846 20.365 20.093 19.915 13.452-.508 18.048-12.479 18.048-12.479l-11.883-3.972c.029-.057-2.41 4-7.09 4" fill="#3dab53" fill-rule="nonzero"/><path d="M20.421 28.492c-4.092.03-7.427-2.675-7.65-7.717-.225-4.705 3.867-7.86 7.762-7.944 4.484-.112 7.174 5.07 7.174 5.07l11.574-4.31S34.518 1.112 21.627 1.112c-12.05 0-20.373 8.45-20.373 19.917 0 10.196 7.846 20.365 20.093 19.915 13.452-.508 18.048-12.479 18.048-12.479l-11.883-3.972c.029-.057-2.41 4-7.09 4" stroke="#006838" stroke-width="1.397"/><path d="M48.07 12.566c-.563 0-.994-.132-1.225-.366-.232-.234-.365-.634-.365-1.234 0-.532.133-.9.365-1.132.231-.234.628-.334 1.224-.334h20.496c.598 0 1.028.1 1.226.334.232.232.331.6.331 1.132 0 .568-.1 1-.33 1.234s-.63.366-1.225.366h-3.08V19.9h4.57c.595 0 .992.1 1.225.3.231.2.331.534.331 1.034 0 .532-.1.932-.331 1.166-.233.266-.63.4-1.226.4h-4.57v9.566c0 .6-.165 1.034-.496 1.268-.331.232-.728.332-1.159.332-.464 0-.86-.132-1.192-.366-.33-.234-.498-.634-.498-1.234V22.8h-7.383c-.1 1.334-.265 2.534-.562 3.566-.25.995-.64 1.95-1.159 2.834a13.12 13.12 0 0 1-1.755 2.334c-.697.7-1.49 1.4-2.384 2.066-.53.4-1.027.566-1.49.534-.464-.034-.828-.268-1.094-.734-.33-.466-.43-.9-.298-1.3.133-.4.432-.766.895-1.134a19.66 19.66 0 0 0 1.887-1.532c.53-.5.993-1.068 1.357-1.7a8.205 8.205 0 0 0 .861-2.134c.233-.8.365-1.7.464-2.8h-4.438c-.594 0-.993-.134-1.224-.4s-.331-.666-.331-1.166c0-.468.1-.8.33-1.034.232-.2.63-.3 1.225-.3h4.538v-7.334h-3.51zm6.722 7.334h7.317v-7.334h-7.317zm23.443.2c-.364.334-.728.5-1.125.466-.398-.032-.861-.3-1.358-.8-.233-.132-.564-.4-.96-.732-.431-.334-.828-.668-1.259-1-.43-.368-.662-.734-.761-1.1-.1-.368.033-.768.398-1.268.595-.766 1.422-.8 2.417-.066.363.3.761.6 1.224.966.464.368.861.7 1.192 1 .399.4.662.8.796 1.234.1.334-.068.8-.564 1.3zm.63 4.834c-.365 1.432-.73 2.766-1.16 4.032a24.436 24.436 0 0 1-1.556 3.768c-.265.532-.596.9-1.093 1.032-.44.141-.92.093-1.324-.132-.43-.268-.697-.6-.796-1-.098-.4.067-.968.432-1.634.53-.966.96-2.034 1.324-3.2.364-1.166.73-2.4 1.06-3.7.132-.634.363-1.066.662-1.3s.696-.3 1.257-.2c.531.1.928.3 1.128.666.263.368.263.934.066 1.668zm.496-11.268c-.365.334-.728.5-1.126.468-.398-.034-.828-.3-1.357-.768a82.97 82.97 0 0 1-1.193-1 25.405 25.405 0 0 0-1.06-.866c-.43-.366-.695-.734-.76-1.066-.067-.368.033-.768.397-1.234.298-.4.661-.634 1.092-.666.43-.034.861.1 1.325.466.331.266.629.466.86.666.233.2.464.368.63.534.165.166.33.3.498.434.164.132.297.266.463.432.397.4.662.8.794 1.234.133.434-.033.866-.497 1.334zm7.947-.032c-.927 0-1.555.2-1.888.632-.364.434-.53 1.1-.53 2.068v6c0 1.766.795 2.666 2.418 2.666h2.45v5.166c0 .268-.065.434-.165.534-.133.066-.464.034-1.06-.134-.629-.166-1.06-.2-1.324-.066-.232.134-.431.434-.597.866-.131.534-.131.968.066 1.3.2.334.598.568 1.259.668.894.166 1.622.232 2.186.266.563 0 1.026-.1 1.357-.334.332-.232.597-.6.729-1.1.132-.5.199-1.166.199-1.966V25h2.449c.927 0 1.557-.2 1.954-.6.364-.4.564-1.066.564-2.066V16.3c0-.934-.166-1.634-.498-2.066-.331-.434-.96-.634-1.854-.634h-2.879c.066-.134.132-.2.132-.266.034-.034.034-.068.066-.1.299-.668.299-1.2.034-1.534h4.735c.562 0 .927-.1 1.125-.334.199-.232.298-.566.298-1.066s-.1-.866-.265-1.1c-.165-.234-.562-.366-1.158-.366H83.035c-.927 0-1.59.232-1.986.666-.431.466-.63 1.2-.63 2.2v7c0 1.634 0 3.034-.033 4.234-.033 1.2-.1 2.232-.165 3.132-.1.9-.233 1.7-.398 2.368-.166.673-.387 1.33-.662 1.966-.132.334-.265.6-.364.866-.1.234-.133.468-.133.668.004.2.061.395.166.566.1.166.265.334.497.5.397.266.794.334 1.158.3.364-.066.697-.4.994-1.034.363-.766.662-1.632.894-2.5.231-.9.43-1.9.563-2.966.132-1.1.232-2.266.298-3.566s.066-2.734.066-4.3v-6.5c0-.3.033-.468.133-.568a.492.492 0 0 1 .299-.132h6.356l-.1.2a1.594 1.594 0 0 0-.099.232c-.265.534-.529 1-.827 1.468h-1.755zm.43 14.032c.232-.566.332-1.032.266-1.366-.067-.334-.331-.6-.795-.766-.431-.2-.796-.2-1.06-.034-.265.166-.53.5-.729.966-.165.5-.33.9-.496 1.268-.166.366-.299.7-.463 1-.167.3-.332.632-.564.966-.199.334-.43.734-.728 1.166-.33.5-.464.934-.43 1.3.033.368.199.668.462.9.399.3.762.4 1.093.3.332-.132.663-.4.96-.8.499-.8.962-1.632 1.392-2.432.397-.834.794-1.668 1.093-2.468zM94.559 18h-6.854v-1.3c0-.2.033-.334.1-.366a.657.657 0 0 1 .298-.068h6.06c.264 0 .396.134.396.434zm0 3.866c0 .334-.132.5-.398.5H88.1c-.263 0-.363-.166-.363-.5v-1.332h6.855v1.332zm3.444 8.534c-.232-.434-.43-.834-.629-1.166-.199-.334-.364-.668-.563-.968-.2-.332-.397-.632-.597-.966-.231-.334-.462-.7-.761-1.1-.331-.434-.662-.666-1.026-.7a1.106 1.106 0 0 0-.96.4c-.166.166-.299.366-.365.566s-.066.368-.066.568c.034.2.066.366.132.532.067.168.166.334.299.468.231.3.43.6.596.866.199.266.364.566.562.866.166.3.365.634.564.968.2.332.397.732.629 1.132.265.534.53.868.795.968.265.132.596.1 1.026-.1.463-.234.728-.534.762-.968.032-.366-.1-.832-.398-1.366zM110.85 9.266c0-.6.133-1 .364-1.232.266-.234.662-.334 1.257-.334.564 0 .962.1 1.226.334.265.232.398.632.398 1.232V12.7h6.69c.661 0 1.19.034 1.588.1.397.066.729.2.96.434.233.232.365.532.464.932.066.4.132.934.132 1.568v8.232c0 .6-.032 1.1-.1 1.468-.065.4-.231.7-.429.9-.233.232-.53.366-.96.466-.399.1-.928.134-1.59.134h-6.689v5.6c0 .466-.133.832-.364 1.132-.232.268-.662.434-1.29.434-.698 0-1.16-.134-1.359-.366-.199-.234-.298-.634-.298-1.234v-5.566h-6.49c-.662 0-1.159-.034-1.59-.134-.397-.1-.728-.234-.96-.466-.231-.234-.365-.534-.43-.934a8.977 8.977 0 0 1-.1-1.466v-8.268c0-.6.034-1.132.1-1.5.065-.4.231-.7.43-.9.232-.232.53-.366.96-.432a9.363 9.363 0 0 1 1.59-.134h6.49zm-5.695 6.668c-.265 0-.43.032-.498.132-.066.1-.1.334-.1.668v6c0 .432.034.7.134.8.066.1.265.132.596.132h5.629V15.9h-5.762v.034zm9.006 0V23.7h5.762c.364 0 .563-.066.662-.166.066-.1.1-.368.1-.8v-6c0-.334-.067-.568-.166-.668-.133-.1-.398-.132-.795-.132zm37.318 14.2c0 1.032-.2 1.8-.629 2.266-.43.466-1.16.7-2.252.7h-18.311c-1.093 0-1.82-.234-2.185-.7-.398-.466-.596-1.234-.596-2.266V11.7c0-1.034.165-1.766.53-2.234.363-.466 1.092-.666 2.153-.666h18.377c1.092 0 1.82.234 2.25.666.4.468.63 1.2.63 2.234v18.434zm-20.33-18.368c-.232 0-.4.068-.499.168-.1.1-.164.332-.164.632v16.5c0 .734.299 1.1.96 1.1h16.39a.597.597 0 0 0 .53-.3c.132-.2.2-.466.2-.8V12.534c0-.268-.068-.434-.233-.568-.132-.132-.397-.2-.794-.2zm2.152 4.7c-.63 0-1.06-.1-1.26-.3-.23-.2-.33-.566-.33-1.1 0-.566.1-.966.33-1.132.233-.168.63-.268 1.259-.268h12.351c.662 0 1.093.1 1.292.3.231.2.33.568.33 1.168 0 .532-.099.9-.33 1.1-.232.2-.662.3-1.292.3h-5.164v2.532h4.205c.594 0 1.025.1 1.257.3.232.2.364.534.364 1.068 0 .532-.132.866-.363 1.066-.233.2-.664.3-1.258.3h-.53c.363.4.662.766.893 1.066.231.334.53.7.861 1.168.265.332.365.632.365.966s-.133.6-.398.834h.165c.63 0 1.06.1 1.26.332.199.234.33.6.33 1.134s-.1.866-.33 1.066c-.233.168-.63.268-1.26.268h-13.145c-.629 0-1.06-.1-1.258-.268-.232-.166-.331-.532-.331-1.066s.1-.9.33-1.134c.232-.232.63-.332 1.259-.332h4.57V21.8h-3.444c-.662 0-1.093-.1-1.292-.3-.231-.2-.33-.534-.33-1.066 0-.534.099-.868.33-1.068s.662-.3 1.292-.3h3.444v-2.532H133.3v-.068zm8.873 7.234c-.363-.434-.529-.8-.496-1.1.033-.334.133-.6.364-.866h-1.523v4.032h3.41l-.165-.166c-.067-.066-.1-.134-.166-.2-.166-.2-.298-.366-.397-.466-.1-.134-.2-.234-.265-.334a2.428 2.428 0 0 0-.299-.366c-.132-.134-.264-.3-.463-.534z" fill="#111" fill-rule="nonzero"/></g></svg>