<svg viewBox="0 0 204 40" version="1.1" xmlns="http://www.w3.org/2000/svg" xmlns:xlink="http://www.w3.org/1999/xlink">
<title>StackOverflow-logo</title>
<desc>Created using Figma</desc>
<g id="Canvas" transform="translate(-175 -1858)">
<g id="StackOverflow-logo">
<g id="Vector">
<use xlink:href="#path0_fill" transform="translate(213.49 1869.94)" fill="#222426"/>
</g>
<g id="Vector">
<use xlink:href="#path1_fill" transform="translate(175 1883.72)" fill="#BCBBBB"/>
</g>
<g id="Vector">
<use xlink:href="#path2_fill" transform="translate(182.113 1858)" fill="#F48024"/>
</g>
</g>
</g>
<defs>
<path id="path0_fill" d="M 7.60048 12.8136L 5.26187 12.6188C 3.45919 12.4726 2.72838 11.7418 2.72838 10.5237C 2.72838 9.06211 3.84896 8.13641 5.94397 8.13641C 7.45432 8.13641 8.76979 8.47746 9.79293 9.30572L 11.1571 7.94153C 9.84165 6.86967 8.03897 6.38246 5.94397 6.38246C 2.87454 6.38246 0.633374 7.99025 0.633374 10.6212C 0.633374 13.0085 2.14373 14.2753 4.96955 14.5189L 7.35688 14.7138C 9.01339 14.8599 9.74421 15.542 9.74421 16.8088C 9.74421 18.514 8.28258 19.3423 5.89524 19.3423C 4.09257 19.3423 2.53349 18.855 1.41291 17.6857L -7.43424e-07 19.0986C 1.60779 20.609 3.50792 21.1937 5.94397 21.1937C 9.45188 21.1937 11.8392 19.5859 11.8392 16.8088C 11.8879 13.9829 10.134 13.0572 7.60048 12.8136ZM 25.7247 6.28502C 23.3861 6.28502 21.9245 6.7235 20.6577 8.38002L 22.0219 9.74421C 22.8502 8.52618 23.8246 8.08769 25.676 8.08769C 28.3069 8.08769 29.3788 9.15956 29.3788 11.2546L 29.3788 12.6675L 25.0426 12.6675C 21.827 12.6675 20.0731 14.324 20.0731 16.8575C 20.0731 18.0268 20.4628 19.0986 21.1449 19.7807C 22.0706 20.7064 23.2399 21.0962 25.2375 21.0962C 27.1863 21.0962 28.2095 20.7064 29.4275 19.5371L 29.4275 20.95L 31.5225 20.95L 31.5225 11.1084C 31.4738 7.99025 29.5737 6.28502 25.7247 6.28502ZM 29.3788 15.8343C 29.3788 17.0524 29.1352 17.8806 28.648 18.3191C 27.7223 19.1961 26.6504 19.2935 25.4324 19.2935C 23.1425 19.2935 22.1194 18.514 22.1194 16.8088C 22.1194 15.1522 23.1912 14.2753 25.3349 14.2753L 29.3788 14.2753L 29.3788 15.8343ZM 39.7564 8.18513C 41.1206 8.18513 41.9975 8.5749 43.0694 9.79293L 44.4823 8.42874C 43.0207 6.82095 41.7539 6.33374 39.7564 6.33374C 36.1023 6.33374 33.3739 8.81851 33.3739 13.7393C 33.3739 18.6602 36.151 21.1449 39.7564 21.1449C 41.7539 21.1449 43.0207 20.609 44.531 19.0012L 43.0694 17.637C 41.9975 18.855 41.1206 19.2935 39.7564 19.2935C 38.3435 19.2935 37.1742 18.7576 36.3946 17.637C 35.7125 16.7113 35.4689 15.5907 35.4689 13.7393C 35.4689 11.9367 35.7125 10.8161 36.3946 9.84165C 37.1742 8.72107 38.3435 8.18513 39.7564 8.18513ZM 57.8806 6.4799L 55.2497 6.4799L 48.6723 12.8624L 48.6723 0.0487203L 46.5773 0.0487203L 46.5773 20.95L 48.6723 20.95L 48.6723 15.6882L 51.2545 13.106L 56.0779 20.95L 58.7089 20.95L 52.7162 11.6443L 57.8806 6.4799ZM 67.8197 5.70036C 65.5785 5.70036 64.1169 6.57734 63.1912 7.55176C 61.827 8.96467 61.486 10.6699 61.486 13.3983C 61.486 16.1267 61.827 17.8319 63.1912 19.2448C 64.1169 20.2192 65.6272 21.0962 67.8197 21.0962C 70.0609 21.0962 71.5712 20.2192 72.4969 19.2448C 73.8611 17.8319 74.2021 16.1267 74.2021 13.3983C 74.2021 10.6699 73.8611 8.96467 72.4969 7.55176C 71.5712 6.57734 70.0121 5.70036 67.8197 5.70036ZM 69.5736 17.0524C 69.1352 17.4909 68.5505 17.7345 67.8197 17.7345C 67.0889 17.7345 66.5042 17.4909 66.0657 17.0524C 65.2862 16.2728 65.1888 14.9574 65.1888 13.3983C 65.1888 11.8392 65.2862 10.5237 66.0657 9.74421C 66.5042 9.30572 67.0402 9.06211 67.8197 9.06211C 68.5505 9.06211 69.1352 9.30572 69.5736 9.74421C 70.3532 10.5237 70.4506 11.8392 70.4506 13.3983C 70.4506 14.9574 70.3532 16.2728 69.5736 17.0524ZM 84.19 5.89525L 81.1693 15.201L 78.0998 5.89525L 74.1534 5.89525L 79.7076 20.95L 82.6309 20.95L 88.1364 5.89525L 84.19 5.89525ZM 94.5675 5.70036C 90.6699 5.70036 87.9902 8.47746 87.9902 13.3983C 87.9902 19.4884 91.4007 21.0962 94.9573 21.0962C 97.6857 21.0962 99.1473 20.268 100.658 18.7089L 98.3678 16.4677C 97.3934 17.4421 96.6138 17.8806 94.9573 17.8806C 92.8623 17.8806 91.6443 16.4677 91.6443 14.5189L 101.047 14.5189L 101.047 12.8624C 101.096 8.76979 98.7088 5.70036 94.5675 5.70036ZM 91.693 11.9854C 91.7417 11.3033 91.7904 10.9135 92.034 10.3776C 92.4238 9.5006 93.2521 8.81851 94.5675 8.81851C 95.8343 8.81851 96.6625 9.5006 97.101 10.3776C 97.3446 10.9135 97.4421 11.352 97.4421 11.9854L 91.693 11.9854ZM 106.65 7.30816L 106.65 5.84653L 102.996 5.84653L 102.996 20.95L 106.748 20.95L 106.748 11.8879C 106.748 9.98781 108.015 9.11084 109.184 9.11084C 110.11 9.11084 110.597 9.40316 111.181 9.98781L 114.007 7.16199C 112.984 6.13885 111.912 5.74908 110.451 5.74908C 108.794 5.70036 107.381 6.4799 106.65 7.30816ZM 115.128 4.33617L 115.128 20.95L 118.879 20.95L 118.879 9.06211L 121.656 9.06211L 121.656 6.18757L 118.879 6.18757L 118.879 4.53106C 118.879 3.65408 119.318 3.16687 120.195 3.16687L 121.656 3.16687L 121.656 0L 119.513 0C 116.492 0 115.128 2.19245 115.128 4.33617ZM 137.15 5.70036C 134.909 5.70036 133.447 6.57734 132.521 7.55176C 131.157 8.96467 130.816 10.6699 130.816 13.3983C 130.816 16.1267 131.157 17.8319 132.521 19.2448C 133.447 20.2192 134.957 21.0962 137.15 21.0962C 139.391 21.0962 140.901 20.2192 141.827 19.2448C 143.191 17.8319 143.532 16.1267 143.532 13.3983C 143.532 10.6699 143.191 8.96467 141.827 7.55176C 140.901 6.57734 139.342 5.70036 137.15 5.70036ZM 138.904 17.0524C 138.465 17.4909 137.881 17.7345 137.15 17.7345C 136.419 17.7345 135.834 17.4909 135.396 17.0524C 134.616 16.2728 134.519 14.9574 134.519 13.3983C 134.519 11.8392 134.616 10.5237 135.396 9.74421C 135.834 9.30572 136.37 9.06211 137.15 9.06211C 137.881 9.06211 138.465 9.30572 138.904 9.74421C 139.683 10.5237 139.781 11.8392 139.781 13.3983C 139.781 14.9574 139.683 16.2728 138.904 17.0524ZM 161.267 5.89525L 158.831 15.201L 155.761 5.89525L 153.033 5.89525L 149.963 15.201L 147.527 5.89525L 143.532 5.89525L 148.161 20.95L 151.23 20.95L 154.397 11.4982L 157.564 20.95L 160.633 20.95L 165.213 5.89525L 161.267 5.89525ZM 127.211 16.419L 127.211 0L 123.459 0L 123.459 16.6139C 123.459 18.7576 124.775 20.9013 127.844 20.9013L 129.988 20.9013L 129.988 17.7345L 128.526 17.7345C 127.6 17.7345 127.211 17.296 127.211 16.419ZM 17.7345 8.76979L 19.6833 6.82095L 15.6882 6.82095L 15.6882 2.04628L 13.5932 2.04628L 13.5932 17.0524C 13.5932 19.1961 14.8112 20.95 17.296 20.95L 18.8063 20.95L 18.8063 19.1474L 17.6857 19.1474C 16.3215 19.1474 15.7369 18.3678 15.7369 17.0524L 15.7369 8.76979L 17.7345 8.76979Z"/>
<path id="path1_fill" d="M 28.5018 10.7186L 28.5018 1.48685e-06L 32.1072 1.48685e-06L 32.1072 14.2753L 1.85856e-07 14.2753L 1.85856e-07 1.48685e-06L 3.55664 1.48685e-06L 3.55664 10.7186L 28.5018 10.7186Z"/>
<path id="path2_fill" d="M 0.389768 24.7503L 17.8806 28.4044L 18.6114 24.8965L 1.12058 21.2424L 0.389768 24.7503ZM 2.67966 16.3703L 18.855 23.922L 20.3654 20.7064L 4.19001 13.106L 2.67966 16.3703ZM 7.16199 8.42874L 20.9013 19.8295L 23.1912 17.1011L 9.45188 5.70036L 7.16199 8.42874ZM 16.0292 0L 13.1547 2.14373L 23.8246 16.4677L 26.6991 14.324L 16.0292 0ZM 3.71712e-07 32.838L 17.8319 32.838L 17.8319 29.2813L 3.71712e-07 29.2813L 3.71712e-07 32.838Z"/>
</defs>
</svg>
