<svg xmlns="http://www.w3.org/2000/svg" id="Layer_1" data-name="Layer 1" viewBox="0 0 400 245"><defs><style>.cls-1{fill:#3caee4}.cls-2{fill:#9e9e9f}</style></defs><title>alauda</title><path class="cls-1" d="M132.345 123.214v60.448h-26.547v-60.887A33.616 33.616 0 0 0 40.18 112.3l-10.003 4.932 8.407 6.984c.9 16.579 6.759 44.35 55.24 59.445H71.573c-33.394-.183-60.311-27.723-60.125-61.103a60.45 60.45 0 0 1 120.898.655z"/><path class="cls-1" d="M64.758 125.594a6.988 6.988 0 1 1-6.948-7.032 6.984 6.984 0 0 1 6.948 7.032z"/><path class="cls-2" d="M181.424 183.91v-38.849h6.99v38.85zM249.899 171.403a12.347 12.347 0 1 1-24.693 0v-11.69h6.992v11.523a6.911 6.911 0 0 0 1.476 4.262 5.48 5.48 0 0 0 3.879 1.802 5.276 5.276 0 0 0 3.823-1.802 6.642 6.642 0 0 0 1.53-4.262v-11.524h6.993zM363.36 172.366a12.347 12.347 0 1 1 24.693 0v11.69h-6.993V172.53a6.908 6.908 0 0 0-1.475-4.259 5.471 5.471 0 0 0-3.876-1.802 5.277 5.277 0 0 0-3.828 1.802 6.639 6.639 0 0 0-1.527 4.26v11.525h-6.993zM276.155 180.36a12.507 12.507 0 1 1 0-17.918v-17.38h6.442v38.083h-6.442zm-12.184-4.425a5.909 5.909 0 0 0 4.318 1.86 6.02 6.02 0 0 0 4.366-1.86 6.59 6.59 0 0 0 1.805-4.532 6.68 6.68 0 0 0-1.805-4.533 6.023 6.023 0 0 0-4.366-1.862 5.91 5.91 0 0 0-4.318 1.862 6.685 6.685 0 0 0-1.8 4.533 6.595 6.595 0 0 0 1.8 4.532zM314.03 171.601c0-6.882-5.79-12.456-13.055-12.456a12.467 12.467 0 1 0 0 24.912 13.561 13.561 0 0 0 7.265-2.074v1.417h5.79v-11.799zm-8.63 4.59a6.027 6.027 0 0 1-4.372 1.858 5.782 5.782 0 0 1-4.257-1.859 6.297 6.297 0 0 1-1.86-4.589 6.173 6.173 0 0 1 1.86-4.533 5.646 5.646 0 0 1 4.257-1.914 5.88 5.88 0 0 1 4.372 1.914 6.407 6.407 0 0 1 1.748 4.48 6.804 6.804 0 0 1-1.748 4.642zM219.86 171.455c0-6.882-5.79-12.456-13.056-12.456a12.467 12.467 0 1 0 0 24.912 13.555 13.555 0 0 0 7.265-2.074v1.418h5.792v-11.8zm-8.63 4.59a6.04 6.04 0 0 1-4.37 1.859 5.794 5.794 0 0 1-4.262-1.86 6.302 6.302 0 0 1-1.857-4.589 6.178 6.178 0 0 1 1.857-4.533 5.65 5.65 0 0 1 4.261-1.914 5.886 5.886 0 0 1 4.37 1.914 6.412 6.412 0 0 1 1.748 4.48 6.813 6.813 0 0 1-1.747 4.642zM175.949 171.455c0-6.882-5.792-12.456-13.054-12.456a12.467 12.467 0 1 0 0 24.912 13.556 13.556 0 0 0 7.262-2.074v1.418h5.792v-11.8zm-8.63 4.59a6.038 6.038 0 0 1-4.372 1.859 5.798 5.798 0 0 1-4.261-1.86 6.315 6.315 0 0 1-1.856-4.589 6.19 6.19 0 0 1 1.856-4.533 5.653 5.653 0 0 1 4.261-1.914 5.883 5.883 0 0 1 4.371 1.914 6.413 6.413 0 0 1 1.748 4.48 6.814 6.814 0 0 1-1.748 4.642zM350.57 174.744a6.482 6.482 0 0 1-.991 1.446 6.033 6.033 0 0 1-4.371 1.86c-.008 0-.018-.005-.026-.005-.007 0-.019.004-.027.004a6.033 6.033 0 0 1-4.37-1.859 6.818 6.818 0 0 1-1.748-4.642 6.416 6.416 0 0 1 1.748-4.48 5.887 5.887 0 0 1 4.37-1.914l.027.002.026-.002a5.886 5.886 0 0 1 4.37 1.914 6.581 6.581 0 0 1 .556.685h7.432a13.189 13.189 0 0 0-25.101 1.158c-.014.065-.037.118-.049.178-.012.07-.02.142-.032.207a12.04 12.04 0 0 0-.23 2.305 12.267 12.267 0 0 0 5.791 10.386v-.004a13.811 13.811 0 0 0 1.479.802l.26.121c.232.097.467.199.704.288.079.028.158.052.235.08a14.351 14.351 0 0 0 1.399.41c.095.022.188.047.284.069.208.044.423.077.638.113a16.265 16.265 0 0 0 1.094.138c.32.024.64.04.965.044.059 0 .12.006.179.009.062-.003.12-.009.18-.009.324-.003.644-.02.964-.044a16.22 16.22 0 0 0 1.094-.138c.214-.036.429-.069.638-.113.095-.022.19-.047.283-.07a14.351 14.351 0 0 0 1.4-.408c.076-.029.156-.053.235-.081.236-.09.47-.19.702-.288l.261-.121a13.842 13.842 0 0 0 1.481-.802v.004a12.397 12.397 0 0 0 5.377-7.243z"/><circle class="cls-2" cx="323.239" cy="180.01" r="4.049"/><path class="cls-2" d="M156.381 78.546h59.572v-5.724a3.188 3.188 0 0 0-3.237-3.236h-56.335v-5.642h56.335a8.997 8.997 0 0 1 8.878 8.878v16.594a9.014 9.014 0 0 1-8.878 8.96h-56.335v-5.643h56.335a3.258 3.258 0 0 0 3.237-3.317v-5.144H156.38zM171.979 119.533l-15.681-12.363 3.485-4.479 15.681 12.361-3.485 4.481zM202.346 115.218c6.47-3.484 12.196-7.384 15.846-12.03l4.399 3.485c-4.15 5.31-10.455 9.624-17.508 13.44zM317.749 88.669h73.178v5.641h-51.48l-4.115 35.677h36.69a4.816 4.816 0 0 0 4.813-4.813l-1.647-16.428h5.643l1.647 16.428a10.462 10.462 0 0 1-10.455 10.453h-43.33l4.116-41.317h-15.06zm9.466-23.066h54.244v5.642h-54.244z"/><path class="cls-2" d="M226.612 131.755v-.217c-8.182-1.634-16.095-5.964-22.635-10.914a38.373 38.373 0 0 1-13.522-17.852c.155-.855.287-1.741.408-2.641-2.144-.092-4.29-.139-6.44-.158q-1.442 12.47-8.462 20.121c-5.302 5.773-13.434 9.303-24.392 11.661l1.326 6.278a70.756 70.756 0 0 0 12.46-3.534 41.403 41.403 0 0 0 14.318-9.014 36.245 36.245 0 0 0 8.483-13.875 40.438 40.438 0 0 0 5.216 7.733 45.354 45.354 0 0 0 6.805 6.409c5.066 3.828 15.14 10.295 24.183 12.281zM257.02 68.673l-4.233-3.65a67.117 67.117 0 0 1-18.086 14.602l2.821 4.895a72.127 72.127 0 0 0 19.498-15.847zM297.176 78.298l7.47 5.974 3.483-4.398-18.753-15.184-3.483 4.398 6.302 5.144c-5.743 3.317-7.641 4.895-13.806 6.895V63.414h-6.09v20.187c-9.626 2.572-24.405 7.058-37.683 8.137l.417 5.643c2.82-.25 5.643-.499 8.296-.83v38.995h60.899v-5.642h-25.805v-5.226h25.805v-5.643h-25.805v-5.808h25.805v-5.64h-25.805v-5.976h25.805V95.97h-25.805v-8.09a124.903 124.903 0 0 0 18.753-9.582zM248.97 95.804A136.045 136.045 0 0 0 272.3 90.17v5.8H248.97zm0 5.807H272.3v5.975H248.97zm0 11.616H272.3v5.808H248.97zm0 11.45H272.3v5.227H248.97z"/></svg>
