<svg xmlns="http://www.w3.org/2000/svg" id="Layer_1" data-name="Layer 1" viewBox="0 0 400 245"><defs><style>.cls-1{fill:#373c41}</style></defs><title>alibaba-cloud</title><g id="Layer_2" data-name="Layer 2"><g id="Layer_1-2" data-name="Layer 1-2"><path class="cls-1" d="M15.695 94.19a16.36 16.36 0 0 0-10.446 7.79c-1.85 3.631-1.918 4.522-1.918 19.797 0 8.151.137 14.864.343 15.926a15.576 15.576 0 0 0 12.295 12.295c1.884.342 26.406.514 26.406.137 0-.274-2.089-8.494-2.192-8.597-.034-.068-4.383-1.027-9.658-2.157-12.295-2.672-11.919-2.569-12.946-3.802l-.89-1.062v-24.864l.89-1.08c1.027-1.232.65-1.13 12.946-3.8 5.275-1.131 9.624-2.09 9.658-2.159.103-.102 2.192-8.322 2.192-8.596 0-.325-25.036-.171-26.68.171zm39.695.05c.034.617 1.952 8.152 2.158 8.357.068.103 4.76 1.165 10.377 2.363s10.617 2.432 11.063 2.672a4.185 4.185 0 0 1 1.472 1.438c.548.96.617 1.987.617 13.015s-.069 12.056-.617 13.015a4.504 4.504 0 0 1-1.472 1.438c-.446.24-5.412 1.439-11.063 2.672s-10.309 2.26-10.377 2.363c-.206.205-2.124 7.74-2.158 8.357 0 .376 2.466.445 13.289.342 14.932-.137 15.103-.171 18.905-2.74a15.635 15.635 0 0 0 5.891-7.706c.788-2.295.788-2.5.788-17.74s0-15.447-.788-17.742a15.635 15.635 0 0 0-5.89-7.706c-3.803-2.569-3.974-2.603-18.906-2.74-10.823-.103-13.289-.051-13.289.343zm63.738 11.645a156.04 156.04 0 0 0-7.159 18.426c-1.644 4.966-4.863 16.063-4.863 16.68a22.87 22.87 0 0 0 2.74.102h2.706l.376-1.472c.24-.788.822-2.912 1.336-4.693l.925-3.253h18.803l.959 3.425c.513 1.883 1.096 4.007 1.301 4.692l.343 1.301h2.705a16.7 16.7 0 0 0 2.74-.102c0-.069-.685-2.603-1.541-5.686-3.117-11.268-7.09-22.364-10.446-29.317l-1.781-3.596h-7.466zm8.117 6.85c1.678 3.939 4.863 12.57 4.863 13.152 0 .068-3.39.137-7.535.137a54.828 54.828 0 0 1-7.535-.274c0-.583 3.46-9.796 5.138-13.734 1.301-3.048 1.952-4.144 2.397-4.144s1.13 1.267 2.672 4.863zm18.22 9.008v19.35h5.48v-38.701h-5.48zm12.33-18.906a4.452 4.452 0 0 0-1.507 1.713 2.412 2.412 0 0 0-.137 2.568 3.37 3.37 0 0 0 4.178 2.124 3.073 3.073 0 0 0 2.432-3.323 2.626 2.626 0 0 0-1.13-2.534 3.129 3.129 0 0 0-3.836-.548zm9.932 18.837v19.317l4.213.308c2.294.137 5.89.308 7.945.308 3.46 0 3.939-.068 5.754-.993a7.99 7.99 0 0 0 4.384-5.103 69.631 69.631 0 0 0 .24-9.419c-.103-7.637-.137-8.185-.856-9.555-1.336-2.466-3.357-3.665-7.09-4.179a30.554 30.554 0 0 0-8.425.48c-.651.205-.685.068-.685-5.103v-5.343h-5.48v19.282zm15.583-3.699a2.805 2.805 0 0 1 1.541 1.37c.446 1.165.446 13.905 0 15.036-.513 1.404-2.191 2.054-5.48 2.054a31.489 31.489 0 0 1-4.52-.274l-1.644-.24v-17.706l1.986-.343c3.048-.513 6.782-.48 8.117.103zm38.873 3.733v19.317l3.356.171c1.816.137 4.967.308 6.987.445 4.692.274 7.638-.48 9.556-2.5 2.466-2.534 2.534-2.843 2.637-11.473.103-6.268.034-8.152-.411-9.59-.925-3.22-3.596-5.24-7.672-5.72-2.055-.24-7.432.035-8.528.48-.342.103-.445-1.062-.445-5.138v-5.308h-5.48zm15.378-3.887a2.856 2.856 0 0 1 1.404.993c.377.685.48 15.001.137 15.926-.582 1.507-5.206 2.158-9.795 1.404l-1.644-.24v-17.69l1.986-.342c2.74-.445 6.61-.48 7.912-.051zm54.422-15.087c-3.425.617-5.172 1.439-6.953 3.22-2.74 2.74-2.911 3.733-2.911 16.131s.171 13.391 2.945 16.166a8.184 8.184 0 0 0 4.281 2.568c2.192.685 3.254.788 7.843.788a33.773 33.773 0 0 0 8.083-.65 22.855 22.855 0 0 0 3.22-.891c.274-.171.24-.788-.172-2.432a14.927 14.927 0 0 0-.787-2.432 3.533 3.533 0 0 0-1.884.24 34.255 34.255 0 0 1-11.713.89c-3.322-.41-4.555-.958-5.617-2.294-.685-.89-.72-1.267-.72-11.953s.035-11.062.72-11.953c1.062-1.336 2.26-1.85 5.617-2.295a33.361 33.361 0 0 1 11.713.89c.925.275 1.747.515 1.85.515.273 0 1.472-4.761 1.267-4.967a21.88 21.88 0 0 0-2.877-.89 50.227 50.227 0 0 0-13.905-.65zm21.645 19.009v19.35h5.137v-38.701h-5.137zm77.746-14.214v5.138l-1.953-.206c-1.096-.103-2.329-.24-2.74-.342a19.412 19.412 0 0 0-6.712 1.096 9.196 9.196 0 0 0-3.768 3.733c-.685 1.267-.753 1.986-.856 8.973-.137 9.35.137 10.72 2.637 13.152 2.226 2.157 4.863 2.877 9.35 2.568 1.747-.102 4.624-.308 6.37-.41l3.151-.206v-38.633h-5.48zm-.583 10.446c.548.24.582.993.582 9.11v8.837l-1.267.24c-2.192.445-6.37.342-7.569-.172a3.367 3.367 0 0 1-1.438-1.096 58.067 58.067 0 0 1-.343-8.083c0-8.15.069-8.425 1.884-9.007a30.887 30.887 0 0 1 8.151.171zm-187.787-5.634a44.226 44.226 0 0 0-4.556.856c-1.849.446-2.294.685-2.157 1.13.102.309.342 1.302.582 2.261a7.46 7.46 0 0 0 .616 1.918 12.784 12.784 0 0 0 3.288-.411c5.72-1.199 9.59-.65 10.138 1.404a15.91 15.91 0 0 1 .274 2.774l.034 1.918-3.253-.17c-8.7-.446-13.94 2.807-14.008 8.664a8.394 8.394 0 0 0 2.705 6.644c2.158 1.987 4.453 2.57 8.871 2.295 1.918-.103 5.137-.308 7.158-.41l3.699-.24-.103-11.508-.102-11.508-.96-1.61c-1.917-3.236-6.473-4.743-12.226-4.007zm7.98 17.33c.342.206.308 6.268-.035 6.268-.17 0-1.918.171-3.904.376-5.72.548-7.809-.308-7.809-3.253a2.475 2.475 0 0 1 1.028-2.398 5.706 5.706 0 0 1 2.671-1.061c.89-.103 1.85-.274 2.123-.343a29.982 29.982 0 0 1 5.926.428zm46.647-17.381a46.069 46.069 0 0 0-4.555.89c-2.295.548-2.5.685-2.33 1.336.104.377.377 1.541.617 2.534.377 1.713.445 1.816 1.267 1.61 4.59-1.199 9.008-1.541 10.755-.89 1.61.616 1.952 1.301 1.952 3.904v2.466h-4.179c-5.377 0-7.843.685-10.206 2.808a7.637 7.637 0 0 0-2.637 6.85c.582 5.617 4.555 8.289 11.679 7.843 1.918-.103 5.137-.308 7.158-.41l3.699-.24-.103-11.337c-.102-10.891-.137-11.405-.856-12.74-1.952-3.665-6.37-5.31-12.261-4.624zm6.781 17.159h.925v6.473l-1.952.24c-3.768.479-7.432.376-8.391-.275-1.918-1.267-1.85-4.589.102-5.616a15.223 15.223 0 0 1 6.645-.96c.959.07 2.123.138 2.671.138zm66.375-17.125a9.754 9.754 0 0 0-5.309 3.22c-1.746 2.294-1.918 3.424-1.918 11.644 0 8.425.24 9.419 2.5 11.782 2.192 2.294 3.288 2.637 8.46 2.637 5.309 0 6.507-.411 8.7-2.945 2.088-2.466 2.328-3.7 2.191-12.364-.102-7.056-.171-7.74-.856-9.042a10.275 10.275 0 0 0-4.487-4.316c-1.746-.787-6.884-1.13-9.281-.616zm7.535 5.685c1.746.89 2.02 2.124 2.02 8.87 0 6.405-.24 7.604-1.712 8.906-1.062.959-5.89 1.198-7.638.342-2.055-.959-2.294-1.952-2.294-9.247 0-6.987.205-7.912 1.986-8.87 1.302-.72 6.268-.72 7.638 0zm-181.555 8.87v14.214h5.138v-28.426h-5.138zm192.96-13.767c-.103.274-.137 5.411-.069 11.405.103 9.863.171 11.028.754 12.124 2.02 3.801 5.445 5.377 11.028 5 1.78-.103 4.692-.308 6.473-.41l3.254-.206v-28.358h-5.138v23.255l-1.61.24c-2.98.479-6.678.308-7.877-.309-.616-.342-1.164-.65-1.199-.685s-.17-5.069-.274-11.2l-.17-11.13-2.5-.103c-1.885-.068-2.535 0-2.672.377z"/><path class="cls-1" d="M40.115 121.366a2.47 2.47 0 0 0-.069 1.13c.103.582.72.616 8.768.72l8.631.068v-2.398h-8.562c-7.158 0-8.631.069-8.768.48z"/></g></g></svg>
