<svg xmlns="http://www.w3.org/2000/svg" id="Layer_1" viewBox="0 0 400 245"><style>.st0{fill:#4bb85c}.st1{fill:#111213}</style><path class="st0" d="M45.7 94.5l21.8-10.7-21.9-9.6-21.9 9.5zM23.3 124l-1.1-17.7 16-8-22.5-11.1-14.6 6.3L3 110.6zM88.2 110.5l2.1-17-14.7-6.3-22.3 11.1 16.1 8-1.3 17.7zM67.5 132.5l-1.6 23 18.5-13.9 2.8-22.4zM23.8 132.5L4.1 119.2l2.6 22.5 18.6 13.8zM60.6 137.1l-14.8 10-14.9-10 1.5 23.7 13.3 10 13.2-10z"/><g><path class="st1" d="M114.9 143.8V92.7h18.8c10.4 0 16.9 6.4 16.9 16.6v17.8c0 10.1-6.5 16.6-16.9 16.6-.1.1-18.8.1-18.8.1zm9.8-8.7h9c4.6 0 7.1-3 7.1-8.8v-16.1c0-5.8-2.5-8.8-7.1-8.8h-9v33.7zM196.1 120.5c0-9.6 6.1-15.4 15.9-15.4s15.8 5.8 15.8 15.4v8.6c.1 9.6-6.1 15.4-15.8 15.4-9.9 0-15.9-5.8-15.9-15.4v-8.6zm9.3 7.8c0 5.3 2.3 8.1 6.6 8.1 4.2 0 6.5-2.8 6.5-8.1v-7c0-5.3-2.3-8.1-6.5-8.1s-6.5 2.8-6.5 8.1l-.1 7zM188.4 143.8h-8l-.5-3.6c-2.2 2.5-6.3 4.4-10.8 4.4-7.3 0-12.7-5.2-12.7-11.4 0-16.1 22.3-16.3 22.3-16.3 0-1.2-1.8-5.1-9.8-5.1-2.4.1-4.7.5-6.9 1.3l-1.8-5c4-1.9 8.3-2.9 12.6-3 9.9 0 15.7 4.1 15.7 13.6l-.1 25.1zm-17.4-6.6c3.2-.1 6.1-1.7 7.9-4.3v-10.4c-1.5 0-13 1-13 9.7-.1 2.7 2 4.9 4.6 5h.5zM252.6 144.8c-10.1 0-17.5-6.4-17.5-16.5v-19.5c0-10.1 7.4-16.4 17.5-16.4 6.4 0 10.2 1.8 14.5 4.8l-3.7 6.8c-3.7-2-6-3.2-10.8-3.2-4.7 0-7.8 3.4-7.8 8.8v17.7c0 5.7 3.2 8.8 7.8 8.8 4.7 0 7.1-1.1 10.8-3.2l3.7 6.8c-4.3 3.3-8.1 5.1-14.5 5.1zM273.3 143.8V89.9h9.2v53.9h-9.2zM290.5 120.9c0-9.4 6-15.2 15.7-15.2 9.6 0 15.6 5.7 15.6 15.2v8.5c.1 9.4-6 15.2-15.6 15.2-9.7 0-15.7-5.7-15.7-15.2v-8.5zm9.2 7.7c0 5.2 2.3 8 6.5 8 4.1 0 6.4-2.7 6.4-8v-6.9c0-5.2-2.3-8-6.4-8-4.2 0-6.4 2.7-6.4 8l-.1 6.9zM341.1 144.5c-8.6 0-11.4-5.2-11.4-14.7v-23.4h9.2V129c0 5.3 1.1 7.6 4.7 7.6 2.9 0 5.6-1.7 7-4.2v-25.9h9.3v37.4h-8l-.7-3.5c-2.8 2.4-6.4 3.9-10.1 4.1zM390.9 140.6c-2.8 2.5-6.4 3.9-10.1 3.9-8.4 0-12.8-5.7-12.8-15.2v-9.1c0-9.5 4.2-14.5 12.5-14.5 3.1-.1 6.2.5 9.1 1.7V89.9h9.3v53.9h-7.5l-.5-3.2zm-1.3-25.3c-2.2-1-4.6-1.5-7-1.4-3.5 0-5.5 2.2-5.5 7v7.6c0 5.2 1.4 8 5.6 8 2.8.2 5.5-1.3 6.9-3.8v-17.4z"/></g></svg>
