<svg xmlns="http://www.w3.org/2000/svg" id="master-artboard" viewBox="0 0 400 245"><defs><style>.cls-1{fill:#fff;fill-opacity:0}.cls-2{fill:#ea4335}.cls-3{fill:#4285f4}.cls-4{fill:#34a853}.cls-5{fill:#fbbc05}.cls-6{fill:#5f6368}</style></defs><title>google-cloud_stacked</title><path id="ee-background" class="cls-1" d="M0 0h400v245H0z"/><g id="Layer_3" data-name="Layer 3"><path class="cls-2" d="M218.255 34.756h4.11l11.714-11.714.575-4.973a52.651 52.651 0 0 0-85.657 25.688 6.372 6.372 0 0 1 4.11-.246l23.428-3.864s1.192-1.973 1.81-1.85a29.224 29.224 0 0 1 39.991-3.042h-.08z"/><path class="cls-3" d="M250.768 43.757a52.781 52.781 0 0 0-15.906-25.647l-16.441 16.44a29.222 29.222 0 0 1 10.727 23.182v2.918a14.633 14.633 0 0 1 0 29.266h-29.264l-2.92 2.96v17.55l2.92 2.919h29.264a38.062 38.062 0 0 0 21.62-69.588z"/><path class="cls-4" d="M170.576 113.18h29.266V89.752h-29.266a14.558 14.558 0 0 1-6.042-1.316l-4.109 1.275-11.797 11.713-1.027 4.111a37.861 37.861 0 0 0 22.975 7.645z"/><path class="cls-5" d="M170.576 37.181a38.06 38.06 0 0 0-22.975 68.229l16.974-16.975a14.633 14.633 0 1 1 19.36-19.36L200.91 52.1a38.018 38.018 0 0 0-30.333-14.919z"/></g><g id="Layer_2" data-name="Layer 2"><path class="cls-6" d="M39.243 225.058a25.294 25.294 0 0 1-18.328-7.526 25.155 25.155 0 0 1 0-36.21 25.301 25.301 0 0 1 18.328-7.666 24.556 24.556 0 0 1 17.578 7.082l-4.942 5.027a17.805 17.805 0 0 0-12.635-5 17.606 17.606 0 0 0-13.052 5.555 18.706 18.706 0 0 0 0 26.214 18.634 18.634 0 0 0 25.994.305 14.778 14.778 0 0 0 3.804-8.636H39.327v-7.11h23.577a22.602 22.602 0 0 1 .277 4.333 22.223 22.223 0 0 1-6.081 16.385 23.635 23.635 0 0 1-17.857 7.247zm54.817-4.72a16.994 16.994 0 0 1-23.52 0 16.897 16.897 0 0 1 0-23.604 17.021 17.021 0 0 1 23.52 0 16.863 16.863 0 0 1-.027 23.604zM75.733 215.7a8.998 8.998 0 0 0 12.717.418 8.92 8.92 0 0 0 .418-.418 10.666 10.666 0 0 0 0-14.357 9.136 9.136 0 0 0-12.917-.273q-.14.134-.273.273a10.627 10.627 0 0 0 .027 14.357zm54.485 4.638a16.995 16.995 0 0 1-23.522 0 16.9 16.9 0 0 1 0-23.604 16.994 16.994 0 0 1 23.522 0 16.9 16.9 0 0 1 0 23.604zm-18.33-4.638a8.998 8.998 0 0 0 12.718.418c.144-.134.284-.274.418-.418a10.664 10.664 0 0 0 0-14.357 9.136 9.136 0 0 0-12.918-.273c-.092.09-.184.18-.272.273a10.627 10.627 0 0 0 .027 14.357zm42.1 24.187a14.548 14.548 0 0 1-9.248-2.942 17.039 17.039 0 0 1-5.387-6.832l6.332-2.637a10.674 10.674 0 0 0 3.137 4.136 7.912 7.912 0 0 0 5.193 1.75 8.33 8.33 0 0 0 6.47-2.5 10.139 10.139 0 0 0 2.306-7.218v-2.39h-.25a10.58 10.58 0 0 1-8.692 3.75 15.072 15.072 0 0 1-11.108-4.832 15.97 15.97 0 0 1-4.75-11.635 16.135 16.135 0 0 1 4.75-11.72 15.05 15.05 0 0 1 11.108-4.859 11.924 11.924 0 0 1 5.11 1.139 10.264 10.264 0 0 1 3.61 2.638h.25v-2.638h6.886v29.575a17.241 17.241 0 0 1-4.416 12.913 15.552 15.552 0 0 1-11.301 4.302zm.5-21.326a8.082 8.082 0 0 0 6.276-2.778 10.27 10.27 0 0 0 2.527-7.108 10.499 10.499 0 0 0-2.527-7.249 8.056 8.056 0 0 0-6.276-2.777 8.583 8.583 0 0 0-6.498 2.777 10.135 10.135 0 0 0-2.778 7.192 9.94 9.94 0 0 0 2.778 7.11 8.61 8.61 0 0 0 6.498 2.833zm27.464-43.044v48.542h-7.248v-48.542zm19.884 49.541a15.773 15.773 0 0 1-11.692-4.747 16.084 16.084 0 0 1-4.693-11.775 16.28 16.28 0 0 1 4.526-11.886 14.89 14.89 0 0 1 11.108-4.638 14.044 14.044 0 0 1 5.553 1.084 13.073 13.073 0 0 1 4.25 2.776 19.397 19.397 0 0 1 2.776 3.362 19.831 19.831 0 0 1 1.639 3.248l.75 1.888-22.216 9.137a8.329 8.329 0 0 0 7.998 4.997 9.464 9.464 0 0 0 8.136-4.58l5.553 3.748a18.302 18.302 0 0 1-5.331 5.054 15.103 15.103 0 0 1-8.357 2.332zm-9.276-17.023l14.774-6.137a5.118 5.118 0 0 0-2.305-2.528 7.557 7.557 0 0 0-3.804-.972 8.586 8.586 0 0 0-5.972 2.64 8.803 8.803 0 0 0-2.693 6.997zM254.015 225.058a22.881 22.881 0 0 1-23.273-22.483c-.006-.31-.006-.619.002-.926a22.88 22.88 0 0 1 22.344-23.407c.31-.007.619-.01.927-.003a20.717 20.717 0 0 1 16.467 7.331l-3.999 3.888a15.109 15.109 0 0 0-12.441-5.692 16.967 16.967 0 0 0-12.358 4.942 19.171 19.171 0 0 0 0 25.882 16.966 16.966 0 0 0 12.358 4.944 17.668 17.668 0 0 0 13.885-6.5l4 4a21.814 21.814 0 0 1-7.693 5.859 23.537 23.537 0 0 1-10.219 2.165zM282.673 224.059h-5.748V179.21h5.748zM292.06 197.066a16.081 16.081 0 0 1 22.66 0 17.533 17.533 0 0 1 0 23.327 16.08 16.08 0 0 1-22.66 0 17.53 17.53 0 0 1 0-23.327zm4.275 19.718a9.693 9.693 0 0 0 13.702.378 9.3 9.3 0 0 0 .378-.378 12.4 12.4 0 0 0 0-16.108 9.694 9.694 0 0 0-13.7-.38c-.13.124-.257.25-.38.38a12.32 12.32 0 0 0 .028 16.078zM351.014 224.059h-5.553v-4.25h-.167a10.689 10.689 0 0 1-4.055 3.833 11.334 11.334 0 0 1-5.692 1.528 10.807 10.807 0 0 1-8.72-3.5 13.889 13.889 0 0 1-2.971-9.387V193.4h5.748v17.829q0 8.578 7.58 8.58a7.052 7.052 0 0 0 5.832-2.777 10.471 10.471 0 0 0 2.25-6.637V193.4h5.748zM370.536 225.058a13.49 13.49 0 0 1-10.275-4.692 17.88 17.88 0 0 1 0-23.272 13.501 13.501 0 0 1 10.275-4.694 13.05 13.05 0 0 1 6.276 1.5 10.648 10.648 0 0 1 4.166 3.75h.25l-.25-4.25v-14.19h5.748v44.849h-5.554v-4.25h-.25a10.62 10.62 0 0 1-4.166 3.75 13.018 13.018 0 0 1-6.22 1.499zm.945-5.249a9.17 9.17 0 0 0 6.914-2.998 13.146 13.146 0 0 0 0-16.162 9.386 9.386 0 0 0-13.259-.626c-.218.199-.427.408-.624.626a13.065 13.065 0 0 0 0 16.106 9.16 9.16 0 0 0 6.969 3.054z"/></g></svg>
