<svg xmlns="http://www.w3.org/2000/svg" xmlns:xlink="http://www.w3.org/1999/xlink" id="图层_1" data-name="图层 1" viewBox="0 0 400 245"><defs><style>.cls-1{fill:none}.cls-2{clip-path:url(#clip-path)}.cls-3{fill:url(#radial-gradient)}.cls-4{clip-path:url(#clip-path-2)}.cls-5{fill:url(#radial-gradient-2)}.cls-6{clip-path:url(#clip-path-3)}.cls-7{fill:url(#radial-gradient-3)}.cls-8{clip-path:url(#clip-path-4)}.cls-9{fill:url(#radial-gradient-4)}.cls-10{clip-path:url(#clip-path-5)}.cls-11{fill:url(#radial-gradient-5)}.cls-12{clip-path:url(#clip-path-6)}.cls-13{fill:url(#radial-gradient-6)}.cls-14{clip-path:url(#clip-path-7)}.cls-15{fill:url(#radial-gradient-7)}.cls-16{clip-path:url(#clip-path-8)}.cls-17{fill:url(#radial-gradient-8)}</style><clipPath id="clip-path"><path class="cls-1" d="M12.162 96.68a16.395 16.395 0 0 0 5.674 11.17c8.554 8.29 29.248 18.754 34.04 21.135a.384.384 0 0 0 .47-.088.33.33 0 0 0 .088-.412 254.803 254.803 0 0 0-31.188-50.384s-9.76 9.29-9.084 18.578"/></clipPath><radialGradient id="radial-gradient" cx="-1794.431" cy="135.708" r=".275" gradientTransform="matrix(293.2641 0 0 292.08261 526316.812 -39564.208)" gradientUnits="userSpaceOnUse"><stop offset="0" stop-color="#f7bfa4"/><stop offset=".011" stop-color="#f7bb9f"/><stop offset=".427" stop-color="#e60012"/><stop offset=".663" stop-color="#e50012"/><stop offset=".757" stop-color="#e10011"/><stop offset=".827" stop-color="#da0010"/><stop offset=".884" stop-color="#cf000e"/><stop offset=".933" stop-color="#c00009"/><stop offset=".977" stop-color="#ae0003"/><stop offset="1" stop-color="#a00000"/></radialGradient><clipPath id="clip-path-2"><path class="cls-1" d="M14.279 136.892c3.733 6.644 10.024 11.788 16.579 10.2 4.527-1.116 14.756-8.23 18.137-10.64.264-.236.176-.441.176-.441a.47.47 0 0 0-.44-.294z"/></clipPath><radialGradient id="radial-gradient-2" cx="-1794.43" cy="135.707" r=".276" gradientTransform="matrix(293.28119 0 0 292.0997 526347.224 -39566.511)" xlink:href="#radial-gradient"/><clipPath id="clip-path-3"><path class="cls-1" d="M6.019 121.49a20.432 20.432 0 0 0 10.876 10.258 20.954 20.954 0 0 0 6.585 1.44c.529.089 20.488 0 25.838 0a.435.435 0 0 0 .353-.235c.176-.264-.118-.5-.118-.5-15.138-10.17-44.446-25.78-44.446-25.78a20.161 20.161 0 0 0 .912 14.816"/></clipPath><radialGradient id="radial-gradient-3" cx="-1794.43" cy="135.708" r=".276" gradientTransform="matrix(293.24179 0 0 292.06039 526276.727 -39561.229)" xlink:href="#radial-gradient"/><clipPath id="clip-path-4"><path class="cls-1" d="M46.408 64.374A15.987 15.987 0 0 0 35.12 74.956c-1.675 5.203.03 10.876.03 10.876 3.057 13.464 18.019 35.569 21.253 40.213.235.236.411.147.411.147a.423.423 0 0 0 .323-.44c4.968-49.355-5.203-62.436-5.203-62.436-1.47.147-5.526 1.058-5.526 1.058"/></clipPath><radialGradient id="radial-gradient-4" cx="-1794.156" cy="135.707" r=".276" gradientTransform="matrix(293.24829 0 0 292.06689 526208.007 -39561.834)" xlink:href="#radial-gradient"/><clipPath id="clip-path-5"><path class="cls-1" d="M63.105 125.81a.4.4 0 0 0 .264.382.42.42 0 0 0 .5-.176c3.292-4.762 18.196-26.75 21.223-40.154 0 0 1.647-6.497.06-10.876a15.952 15.952 0 0 0-11.377-10.583s-2.645-.676-5.409-1.058c-.029-.03-10.23 13.08-5.261 62.465"/></clipPath><radialGradient id="radial-gradient-5" cx="-1794.434" cy="135.703" r=".276" gradientTransform="matrix(293.5766 0 0 292.39389 526878.62 -39605.14)" xlink:href="#radial-gradient"/><clipPath id="clip-path-6"><path class="cls-1" d="M71.512 135.746a.48.48 0 0 0-.382.265.528.528 0 0 0 .147.47c3.292 2.352 13.286 9.318 18.107 10.67 0 0 8.907 3.028 16.638-10.2l-34.51-1.205z"/></clipPath><radialGradient id="radial-gradient-6" cx="-1794.435" cy="135.703" r=".276" gradientTransform="matrix(293.55029 0 0 292.36761 526831.867 -39601.577)" xlink:href="#radial-gradient"/><clipPath id="clip-path-7"><path class="cls-1" d="M70.777 132.395a.464.464 0 0 0-.176.5s.147.264.352.264c5.409 0 25.927.03 26.456-.059a21.462 21.462 0 0 0 5.938-1.352 20.232 20.232 0 0 0 11.082-10.553 20.656 20.656 0 0 0 .764-14.61s-29.277 15.639-44.416 25.81"/></clipPath><radialGradient id="radial-gradient-7" cx="-1794.435" cy="135.704" r=".276" gradientTransform="matrix(293.54129 0 0 292.3587 526815.475 -39600.522)" xlink:href="#radial-gradient"/><clipPath id="clip-path-8"><path class="cls-1" d="M67.896 128.368a.495.495 0 0 0 .118.558.438.438 0 0 0 .47.03c4.938-2.44 25.457-12.846 33.981-21.106 0 0 5.38-4.321 5.674-11.23.617-9.612-9.084-18.49-9.084-18.49a254.835 254.835 0 0 0-31.159 50.238"/></clipPath><radialGradient id="radial-gradient-8" cx="-1794.435" cy="135.702" r=".276" gradientTransform="matrix(293.55209 0 0 292.36938 526834.87 -39601.653)" xlink:href="#radial-gradient"/></defs><title>huawei</title><g id="_Group_" data-name="&lt;Group&gt;"><path id="_Compound_Path_" data-name="&lt;Compound Path&gt;" d="M175.572 123.312a42.155 42.155 0 0 0-2.91-8.143 66.57 66.57 0 0 0 19.783-20.37l7.584 2.91q-3.792 5.51-7.849 10.464v26.485h-7.849v-18.636a65.076 65.076 0 0 1-8.76 7.29zm-2.323 25.339v-7.29h30.572v-7.555h7.848v7.554h30.866v7.29h-30.866v16.021h-7.848v-16.02zm24.163-23.311a51.96 51.96 0 0 0-2.91-6.996q8.158-2.602 14.551-4.939v-17.46h7.849v13.962a107.275 107.275 0 0 0 18.342-10.758l4.645 5.526a156.056 156.056 0 0 1-22.987 13.11v3.498c-.206 3.498 1.558 5.145 5.232 4.939h6.114c3.116.206 5.056-1.176 5.82-4.086a53.036 53.036 0 0 0 .882-7.555 79.91 79.91 0 0 0 7.584 2.322 181.446 181.446 0 0 1-1.734 9.025q-1.455 7.275-10.759 6.996h-10.758c-6.996.382-10.377-2.91-10.2-9.906v-2.029a564.356 564.356 0 0 1-11.67 4.351z"/><path id="_Compound_Path_2" data-name="&lt;Compound Path&gt;" d="M255.762 164.936a18.766 18.766 0 0 1-1.47-1.735c-1.94-2.322-3.497-4.086-4.644-5.232q24.737-14.55 26.192-38.126h-24.457v-7.555h25.338a167.669 167.669 0 0 0 .882-17.46h8.73q-.573 11.949-1.175 17.46h30.571q-.308 4.939-.882 17.461-.573 13.978-.882 19.225c-.205 9.318-4.938 13.963-14.256 13.963-4.468.206-9.23.294-14.257.294a64.46 64.46 0 0 0-2.028-8.143c4.644.382 9.024.588 13.11.588q9.304.573 9.318-9.024c0-1.735.088-4.645.294-8.73q.573-12.523.882-18.05H284.6q-2.38 28.75-28.837 45.064zm9.877-53.853a98.672 98.672 0 0 0-9.906-10.759l5.82-4.644c1.176.97 2.91 2.616 5.233 4.938 2.322 2.146 4.086 3.792 5.232 4.939zm29.425 33.776q-2.91-3.484-8.436-9.319c-1.176-1.352-2.029-2.322-2.617-2.91l5.527-4.644q6.393 5.82 11.64 11.052z"/><path id="_Compound_Path_3" data-name="&lt;Compound Path&gt;" d="M326.018 128.838v-7.849h69.579v7.849h-34.922q-7.276 10.186-18.049 22.693c6.408 0 17.55-.382 33.481-1.176a132.033 132.033 0 0 0-9.612-12.228l6.702-4.086q4.366 4.938 13.405 16.314 4.673 5.82 6.702 7.849l-7.29 4.644-4.38-5.82q-9.921.265-31.424 1.47c-3.116.176-5.438.294-6.996.294a59.622 59.622 0 0 0-9.612 1.176l-3.792-7.849a27.68 27.68 0 0 0 7.584-6.408 149.87 149.87 0 0 0 12.522-16.873zm6.114-21.547v-7.848h56.762v7.848z"/></g><g id="_Group_2" data-name="&lt;Group&gt;"><path id="_Path_" data-name="&lt;Path&gt;" d="M16.748 166.023H8.106v-7.613H4.284v18.842h3.822v-7.642h8.642v7.642h3.821V158.41h-3.821v7.613z"/><path id="_Path_2" data-name="&lt;Path&gt;" d="M38.266 169.198c0 3.057-1.529 4.703-4.292 4.703s-4.321-1.675-4.321-4.82v-10.642H25.83v10.759c0 5.291 2.94 8.348 8.084 8.348 5.174 0 8.143-3.086 8.143-8.495v-10.612h-3.822v10.759z"/><path id="_Path_3" data-name="&lt;Path&gt;" d="M82.447 171.373l-4.292-12.963h-3.116l-4.262 12.963-4.174-12.963h-4.057l6.555 18.842h3.175l4.292-12.375 4.262 12.375h3.204l6.555-18.842h-3.968l-4.174 12.963z"/><path id="_Path_4" data-name="&lt;Path&gt;" d="M97.439 169.139h6.937V165.7h-6.937v-3.851h10.082v-3.439H93.647v18.813h14.227v-3.41H97.439v-4.674z"/><path id="_Path_5" data-name="&lt;Path&gt;" d="M112.43 158.41h3.763v18.813h-3.763z"/><path id="_Compound_Path_4" data-name="&lt;Compound Path&gt;" d="M58.284 173.313l1.705 3.91h3.998l-8.231-18.725-.088-.118h-3.351l-8.29 18.814h3.91l1.587-3.645.118-.265h8.642zm-4.321-10.141l2.733 6.29.177.441h-5.791l.176-.44z"/><g class="cls-2" id="_Group_3" data-name="&lt;Group&gt;"><path id="_Path_6" data-name="&lt;Path&gt;" class="cls-3" d="M11.486 78.131h41.095v50.972H11.486z"/></g><g class="cls-4" id="_Group_4" data-name="&lt;Group&gt;"><path id="_Path_7" data-name="&lt;Path&gt;" class="cls-5" d="M14.279 135.717H49.26v12.993H14.279z"/></g><g class="cls-6" id="_Group_5" data-name="&lt;Group&gt;"><path id="_Path_8" data-name="&lt;Path&gt;" class="cls-7" d="M2.432 106.644h47.415v26.632H2.432z"/></g><g class="cls-8" id="_Group_6" data-name="&lt;Group&gt;"><path id="_Path_9" data-name="&lt;Path&gt;" class="cls-9" d="M33.474 63.316h28.631v62.965H33.474z"/></g><g class="cls-10" id="_Group_7" data-name="&lt;Group&gt;"><path id="_Path_10" data-name="&lt;Path&gt;" class="cls-11" d="M58.137 63.316h28.602v62.994H58.137z"/></g><g class="cls-12" id="_Group_8" data-name="&lt;Group&gt;"><path id="_Path_11" data-name="&lt;Path&gt;" class="cls-13" d="M71.071 135.717h34.951v14.433H71.071z"/></g><g class="cls-14" id="_Group_9" data-name="&lt;Group&gt;"><path id="_Path_12" data-name="&lt;Path&gt;" class="cls-15" d="M70.483 106.586h47.297v26.603H70.483z"/></g><g class="cls-16" id="_Group_10" data-name="&lt;Group&gt;"><path id="_Path_13" data-name="&lt;Path&gt;" class="cls-17" d="M67.749 78.131h40.977v50.972H67.749z"/></g></g></svg>
