<svg xmlns="http://www.w3.org/2000/svg" id="Layer_1" data-name="Layer 1" viewBox="0 0 400 245"><defs><style>.cls-1{fill:#231f20}.cls-2{fill:url(#linear-gradient)}</style><linearGradient id="linear-gradient" x1="83.18" y1="572.824" x2="31.624" y2="662.121" gradientTransform="translate(0 -488.254)" gradientUnits="userSpaceOnUse"><stop offset="0" stop-color="#50ffd2"/><stop offset="1" stop-color="#0064ff"/></linearGradient></defs><title>ibm-cloud</title><path id="IBM_Cloud" data-name="IBM Cloud" class="cls-1" d="M134.228 153.483v-3.945h5.526v-31.452h-5.526v-3.946h15.781v3.946h-5.526v31.452h5.526v3.945zm24.41-39.343h16.177c6.483 0 10.483 4 10.483 10.146 0 5.863-3.777 7.95-6.369 8.341v.338c2.82.168 7.722 2.592 7.722 9.13 0 6.482-4.342 11.384-10.146 11.384h-17.867V114.14zm4.733 17.025h10.88c3.721 0 5.972-1.972 5.972-5.467v-1.918c0-3.494-2.255-5.467-5.973-5.467h-10.879zm0 18.15h11.667c4.06 0 6.538-2.141 6.538-6.086v-1.918c0-3.946-2.479-6.087-6.538-6.087h-11.667zm62.678-28.974h-.283l-3.326 6.596-9.412 17.134-9.357-17.134-3.326-6.537h-.282v33.088h-4.624V114.14h6.2l11.275 21.194h.224l11.33-21.194h6.2v39.343h-4.624v-33.142zm23.73 13.753c0-13.302 6.82-20.628 17.417-20.628 7.216 0 11.835 2.93 14.71 9.244l-7.385 3.831c-1.016-3.27-3.102-5.467-7.33-5.467-5.016 0-8.341 3.38-8.341 9.58v6.315c0 6.2 3.325 9.58 8.341 9.58 4.228 0 6.651-2.646 7.836-5.862l6.988 4.059c-2.93 5.972-7.608 9.412-14.824 9.412-10.592.004-17.412-6.76-17.412-20.064zm46.05 19.39c-5.695 0-8.288-2.875-8.288-8.119v-33.589h8.342v35.23h3.722v6.482h-3.777zm6.933-14.825c0-9.526 5.184-15.444 13.867-15.444 8.68 0 13.868 5.918 13.868 15.444s-5.184 15.503-13.868 15.503c-8.678 0-13.867-5.977-13.867-15.503zm19.052 3.048v-6.032c0-3.722-1.918-5.863-5.185-5.863-3.27 0-5.184 2.141-5.184 5.863v6.032c0 3.722 1.918 5.863 5.184 5.863 3.272-.004 5.185-2.146 5.185-5.863zm32.072 6.82h-.282c-1.016 2.988-3.44 5.635-8.287 5.635-6.032 0-9.244-4.227-9.244-11.667v-18.6h8.342v17.867c0 3.608 1.184 5.635 4.227 5.635 2.593 0 5.244-1.467 5.244-4.282v-19.22h8.341v29.593h-8.341v-4.961zm34.272 0h-.282a8.082 8.082 0 0 1-7.95 5.635c-7.498 0-11.384-5.467-11.384-15.503 0-10.031 3.89-15.444 11.384-15.444a8.022 8.022 0 0 1 7.95 5.636h.283v-17.075h8.341v41.712h-8.341zm0-5.472v-8.737c0-2.706-2.31-4.342-5.466-4.342s-5.467 2.424-5.467 6.146v5.13c0 3.721 2.31 6.145 5.467 6.145s5.467-1.635 5.467-4.342z"/><path class="cls-2" d="M19.525 114.131a1.942 1.942 0 0 1-.966-.26l-9.139-5.275a2.014 2.014 0 0 1-.952-2.382 1.94 1.94 0 0 1 2.479-1.171 1.638 1.638 0 0 1 .314.146l9.139 5.28a2.01 2.01 0 0 1 .842 2.628 1.95 1.95 0 0 1-1.717 1.034zM35.32 98.337a1.933 1.933 0 0 1-1.677-.97l-5.275-9.14a2.008 2.008 0 0 1 .369-2.537 1.936 1.936 0 0 1 2.729.228 2.102 2.102 0 0 1 .2.282l5.27 9.135a2.013 2.013 0 0 1-.51 2.656 1.954 1.954 0 0 1-1.106.346zm19.64-7.84V80.081a2.021 2.021 0 0 1 1.849-2.06 1.938 1.938 0 0 1 2.023 1.846c0 .027.004.06.004.086V90.62a1.935 1.935 0 0 1-1.936 1.937h-.087a2.018 2.018 0 0 1-1.854-2.06zm23.507 7.84a1.94 1.94 0 0 1-1.103-.346 2.014 2.014 0 0 1-.51-2.661l5.27-9.13a1.94 1.94 0 0 1 2.648-.71 1.76 1.76 0 0 1 .282.2 2.013 2.013 0 0 1 .37 2.538l-5.276 9.138a1.945 1.945 0 0 1-1.681.97zM94.26 114.13a1.94 1.94 0 0 1-1.717-1.034 2.008 2.008 0 0 1 .843-2.628l9.06-5.23a1.993 1.993 0 0 1 2.516.364 1.934 1.934 0 0 1-.205 2.729 1.891 1.891 0 0 1-.292.21l-9.239 5.334a1.973 1.973 0 0 1-.966.255zm-61.93 44.2a34.734 34.734 0 1 1 51.885-46.013 32.912 32.912 0 0 1 1.686 2.337l-3.23 2.132a31.095 31.095 0 0 0-1.5-2.077 31.516 31.516 0 0 0-2.46-2.77 30.864 30.864 0 0 0-43.647 43.648zm49.325 10.173H28.199a22.436 22.436 0 0 1-22.282-22.588v-.013l3.868.027a18.559 18.559 0 0 0 18.423 18.701h53.43a22.665 22.665 0 0 0 16.901-37.776l2.884-2.578a26.534 26.534 0 0 1-19.767 44.227zM9.785 145.93l-3.868-.027a22.412 22.412 0 0 1 18.697-21.959l.647 3.818A18.544 18.544 0 0 0 9.785 145.93zm49.202-4.132l-3.873-.027a26.537 26.537 0 0 1 46.313-17.494l-2.883 2.578a22.665 22.665 0 0 0-39.557 14.943z" id="Layer_2" data-name="Layer 2"/></svg>
