<svg xmlns="http://www.w3.org/2000/svg" id="图层_1" data-name="图层 1" viewBox="0 0 400 245"><defs><style>.cls-1{fill:none}.cls-2{fill:#737373}.cls-3{clip-path:url(#clip-path)}.cls-4{fill:#f25022}.cls-5{fill:#7fba00}.cls-6{fill:#00a4ef}.cls-7{fill:#ffb900}</style><clipPath id="clip-path"><path class="cls-1" d="M-51.984 37.686h507v167.53h-507z"/></clipPath></defs><title>MS-Azure</title><path class="cls-2" d="M296.166 104.867l12.65 33.596h-6.418l-2.976-8.34h-13.237l-2.858 8.34h-6.372l12.65-33.596zm-3.468 6.232l-4.967 14.151h10.074l-4.943-14.15zM311.658 114.379h19.234v2.273l-12.627 17.314h12.697v4.498h-20.194v-2.695l12.44-16.891h-11.55v-4.499z"/><g class="cls-3"><path class="cls-2" d="M355.088 114.38v24.084h-5.717V135.3h-.093a7.669 7.669 0 0 1-3.01 2.567 9.474 9.474 0 0 1-4.23.925q-4.193 0-6.383-2.379-2.192-2.377-2.191-7.39V114.38h5.74v13.963a7.324 7.324 0 0 0 1.206 4.58 4.349 4.349 0 0 0 3.644 1.535 4.834 4.834 0 0 0 3.865-1.699 6.595 6.595 0 0 0 1.452-4.44v-13.94zM372.16 113.982a7.182 7.182 0 0 1 1.217.093 5.22 5.22 0 0 1 .914.234v5.74a4.929 4.929 0 0 0-1.3-.62 6.441 6.441 0 0 0-2.073-.293 4.401 4.401 0 0 0-3.526 1.756q-1.44 1.758-1.44 5.413v12.158h-5.67V114.38h5.67v3.795h.093a6.648 6.648 0 0 1 2.342-3.08 6.354 6.354 0 0 1 3.772-1.113M394.698 132.396v4.662a12.307 12.307 0 0 1-3.679 1.44 20.54 20.54 0 0 1-4.85.552q-5.505 0-8.562-3.257-3.057-3.256-3.057-9.067a13.232 13.232 0 0 1 3.268-9.219 10.672 10.672 0 0 1 8.282-3.619 9.96 9.96 0 0 1 7.767 3.057q2.775 3.057 2.775 8.446v2.741H380.15q.375 3.631 2.331 5.072a8.301 8.301 0 0 0 5.05 1.44 12.154 12.154 0 0 0 3.888-.62 12.648 12.648 0 0 0 3.28-1.628m-3.631-8.411a6.298 6.298 0 0 0-1.3-4.287 4.63 4.63 0 0 0-3.667-1.476 5.3 5.3 0 0 0-3.655 1.464 7.486 7.486 0 0 0-2.155 4.299z"/></g><g class="cls-3"><path class="cls-2" d="M113.147 104.87v33.593h-5.833v-26.33h-.094l-10.426 26.33H92.93l-10.684-26.33h-.07v26.33h-5.388V104.87h8.364l9.652 24.902h.14l10.19-24.902zm4.878 2.553a3.085 3.085 0 0 1 1.02-2.354 3.434 3.434 0 0 1 2.423-.95 3.392 3.392 0 0 1 2.484.973 3.162 3.162 0 0 1 .984 2.33 3.037 3.037 0 0 1-1.007 2.32 3.477 3.477 0 0 1-2.46.937 3.412 3.412 0 0 1-2.448-.948 3.066 3.066 0 0 1-.996-2.308m6.255 31.04h-5.669V114.38h5.67zm17.196-4.123a7.82 7.82 0 0 0 2.787-.585 11.71 11.71 0 0 0 2.812-1.546v5.27a11.357 11.357 0 0 1-3.081 1.172 16.763 16.763 0 0 1-3.784.398 11.456 11.456 0 0 1-11.97-11.947 13.735 13.735 0 0 1 3.397-9.57q3.395-3.76 9.628-3.76a13.144 13.144 0 0 1 3.222.41 10.756 10.756 0 0 1 2.588.948v5.436a11.57 11.57 0 0 0-2.683-1.489 7.75 7.75 0 0 0-2.799-.527 7.108 7.108 0 0 0-5.412 2.18 8.203 8.203 0 0 0-2.061 5.88 7.83 7.83 0 0 0 1.979 5.693 7.149 7.149 0 0 0 5.377 2.037m21.74-20.358a7.18 7.18 0 0 1 1.218.094 5.102 5.102 0 0 1 .914.235v5.74a4.94 4.94 0 0 0-1.3-.622 6.442 6.442 0 0 0-2.074-.292 4.401 4.401 0 0 0-3.526 1.756q-1.44 1.758-1.44 5.412v12.158h-5.67v-24.082h5.67v3.795h.093a6.648 6.648 0 0 1 2.343-3.08 6.357 6.357 0 0 1 3.771-1.114m2.439 12.792q0-5.975 3.374-9.465t9.37-3.49q5.647 0 8.82 3.361 3.175 3.363 3.175 9.078 0 5.858-3.373 9.324-3.374 3.468-9.183 3.467a12.011 12.011 0 0 1-8.891-3.291q-3.292-3.29-3.292-8.984m5.905-.188a8.602 8.602 0 0 0 1.71 5.764 6.098 6.098 0 0 0 4.895 1.99 5.708 5.708 0 0 0 4.709-1.99q1.617-1.992 1.616-5.904 0-3.888-1.675-5.87a5.816 5.816 0 0 0-4.696-1.978 5.94 5.94 0 0 0-4.838 2.074 9.02 9.02 0 0 0-1.721 5.914m27.268-5.88a2.43 2.43 0 0 0 .773 1.91 13.223 13.223 0 0 0 3.42 1.745 11.589 11.589 0 0 1 4.767 3.057 6.336 6.336 0 0 1 1.37 4.111 6.607 6.607 0 0 1-2.611 5.458 11.09 11.09 0 0 1-7.064 2.062 17.042 17.042 0 0 1-3.315-.362 14.813 14.813 0 0 1-3.08-.926v-5.576a13.955 13.955 0 0 0 3.327 1.71 9.742 9.742 0 0 0 3.232.634 5.752 5.752 0 0 0 2.836-.54 1.925 1.925 0 0 0 .913-1.804 2.504 2.504 0 0 0-.95-1.98 14.067 14.067 0 0 0-3.595-1.862 11.104 11.104 0 0 1-4.451-2.951 6.466 6.466 0 0 1-1.312-4.17 6.59 6.59 0 0 1 2.589-5.354 10.328 10.328 0 0 1 6.712-2.096 16.302 16.302 0 0 1 2.834.28 12.533 12.533 0 0 1 2.625.727v5.389a12.098 12.098 0 0 0-2.625-1.29 8.754 8.754 0 0 0-2.975-.538 4.335 4.335 0 0 0-2.518.632 2.007 2.007 0 0 0-.902 1.734m12.766 6.068q0-5.975 3.374-9.465t9.371-3.49q5.645 0 8.82 3.361 3.174 3.363 3.175 9.078 0 5.858-3.374 9.324-3.373 3.468-9.183 3.467a12.011 12.011 0 0 1-8.89-3.29q-3.293-3.292-3.293-8.985m5.904-.187a8.606 8.606 0 0 0 1.71 5.763 6.1 6.1 0 0 0 4.896 1.99 5.708 5.708 0 0 0 4.709-1.99q1.617-1.992 1.617-5.904 0-3.888-1.675-5.87a5.816 5.816 0 0 0-4.697-1.978 5.938 5.938 0 0 0-4.838 2.074 9.02 9.02 0 0 0-1.722 5.915m37.644-7.568h-8.444v19.445h-5.74v-19.445h-4.029v-4.638h4.03v-3.35a8.336 8.336 0 0 1 2.471-6.22 8.668 8.668 0 0 1 6.337-2.425 14.002 14.002 0 0 1 1.828.106 7.231 7.231 0 0 1 1.405.316v4.896a5.964 5.964 0 0 0-.984-.399 5.13 5.13 0 0 0-1.616-.234 3.425 3.425 0 0 0-2.742 1.113 4.915 4.915 0 0 0-.96 3.291v2.906h8.444v-5.412l5.693-1.734v7.146h5.74v4.638h-5.74v11.268a4.748 4.748 0 0 0 .808 3.14 3.224 3.224 0 0 0 2.542.913 3.787 3.787 0 0 0 1.183-.234 5.547 5.547 0 0 0 1.207-.562v4.685a6.663 6.663 0 0 1-1.793.563 12.242 12.242 0 0 1-2.471.257 7.03 7.03 0 0 1-5.377-1.908q-1.793-1.91-1.792-5.753z"/></g><path class="cls-4" d="M4.002 93.673h26.609v26.609H4.002z"/><path class="cls-5" d="M33.382 93.673h26.609v26.609H33.382z"/><path class="cls-6" d="M4.002 123.052h26.609v26.609H4.002z"/><path class="cls-7" d="M33.382 123.052h26.609v26.609H33.382z"/><path class="cls-4" d="M4.002 93.673h26.609v26.609H4.002z"/><path class="cls-5" d="M33.382 93.673h26.609v26.609H33.382z"/><path class="cls-6" d="M4.002 123.052h26.609v26.609H4.002z"/><path class="cls-7" d="M33.382 123.052h26.609v26.609H33.382z"/></svg>
