<svg xmlns="http://www.w3.org/2000/svg" id="Layer_1" data-name="Layer 1" viewBox="0 0 400 245"><defs><style>.cls-1{fill:#fff}.cls-2{fill:#e12434}</style></defs><title>redhat</title><path d="M131.01 150.682h.552l.833 1.367h.536l-.901-1.392a.816.816 0 0 0 .82-.864c0-.627-.369-.898-1.114-.898h-1.202v3.154h.476zm0-.405v-.98h.651c.332 0 .689.074.689.464 0 .484-.36.516-.767.516z"/><path d="M134.668 150.476a3.093 3.093 0 1 1-3.092-3.093 3.093 3.093 0 0 1 3.092 3.093zm-3.092-2.546a2.542 2.542 0 1 0 2.542 2.548 2.546 2.546 0 0 0-2.542-2.548z"/><path class="cls-1" d="M114.424 153.065a29.872 29.872 0 0 0-11.168 1.96.983.983 0 0 0-.547.873 1.01 1.01 0 0 0 .087.4c.344.994-.22 2.07-3.03 2.69-4.168.916-6.798 5.216-8.302 6.643-1.768 1.68-6.76 2.708-6.01 1.708a37 37 0 0 0 4.202-5.858c1.222-2.357 2.31-3.028 3.81-5.277a19.163 19.163 0 0 0 2.64-4.81c.557-1.787.37-4.035.583-4.958.307-1.335 1.565-4.227 1.66-5.86.055-.925-3.858 1.319-5.714 1.319s-3.664-1.114-5.323-1.193c-2.052-.095-3.37 1.585-5.228 1.29-1.06-.17-1.954-1.105-3.807-1.173-2.639-.097-5.863 1.468-11.919 1.272-5.956-.195-11.459-7.53-12.21-8.695-.88-1.368-1.954-1.368-3.125-.291a1.999 1.999 0 0 1-3.03-.492c-.78-1.366-2.87-5.36-6.105-6.2a4.942 4.942 0 0 0-6.445 5.371c.298 2.938 2.197 3.762 3.077 5.323.878 1.563 1.328 2.568 2.983 3.26 1.172.49 1.608 1.212 1.26 2.176-.307.838-1.527 1.03-2.329 1.069a6.206 6.206 0 0 1-3.77-.937 8.327 8.327 0 0 1-2.723-3.068 4.985 4.985 0 0 0-4.514-2.414 5.395 5.395 0 0 0-2.477.62 22.134 22.134 0 0 1-10.218 2.438l-4.254.004a61.193 61.193 0 0 0 109.334 13.693 33.232 33.232 0 0 0-7.388-.883z"/><path d="M83.8 148.295a.201.201 0 0 0-.143.06 10.853 10.853 0 0 1-1.707 1.683c-1.38 1.112-2.956-.144-3.967-.737-2.246-1.318-4.054-.488-4.494.535-.44 1.028.047 2.263 1.27 2.102 1.713-.222 1.789.043 3.028.83a3.892 3.892 0 0 0 4.85-.025 5.193 5.193 0 0 0 1.486-1.753 2.313 2.313 0 0 0-.192-2.649.214.214 0 0 0-.13-.046z"/><path d="M70.458 59.53a61.215 61.215 0 0 0-57.98 80.725h4.254a22.171 22.171 0 0 0 10.218-2.44 5.417 5.417 0 0 1 2.477-.62 4.984 4.984 0 0 1 4.514 2.414 8.266 8.266 0 0 0 2.722 3.066 6.19 6.19 0 0 0 3.771.94c.802-.039 2.022-.231 2.329-1.07.348-.962-.088-1.687-1.26-2.173-1.655-.691-2.105-1.702-2.983-3.265-.88-1.562-2.779-2.385-3.077-5.322a4.942 4.942 0 0 1 6.445-5.37c3.236.837 5.325 4.834 6.106 6.201a2.002 2.002 0 0 0 3.029.492c1.17-1.078 2.246-1.078 3.126.292.75 1.167 6.253 8.501 12.21 8.692 6.056.195 9.28-1.368 11.918-1.27 1.853.07 2.747 1.002 3.807 1.172 1.857.293 3.176-1.387 5.228-1.289 1.66.08 3.468 1.19 5.323 1.19s5.769-2.24 5.714-1.316c-.095 1.632-1.353 4.526-1.66 5.858-.214.926-.026 3.17-.583 4.96a19.26 19.26 0 0 1-2.64 4.81c-1.5 2.248-2.588 2.92-3.81 5.275a37.104 37.104 0 0 1-4.201 5.86c-.751 1 4.24-.032 6.009-1.709 1.504-1.43 4.135-5.728 8.301-6.643 2.811-.617 3.375-1.697 3.031-2.693a.966.966 0 0 1 .46-1.272 29.992 29.992 0 0 1 11.168-1.956 33.01 33.01 0 0 1 7.388.882A61.184 61.184 0 0 0 70.458 59.53z"/><path class="cls-2" d="M104.977 104.425a9.55 9.55 0 0 1-5.289 6.594c-.558.286-.77-.183-.513-.622a29.457 29.457 0 0 0 2.122-4.043c.588-1.418.896-3.435-.273-7.642-2.3-8.279-7.1-19.344-10.589-22.934-3.365-3.465-9.466-4.439-14.979-3.025-2.03.52-6.003 2.587-13.37.928-12.75-2.872-14.64 3.512-15.37 6.292-.733 2.783-2.49 10.687-2.49 10.687-.585 3.221-1.352 8.818 18.446 12.59 9.224 1.756 9.691 4.14 10.1 5.854.732 3.072 1.902 4.831 3.22 5.71 1.317.88 0 1.607-1.463 1.756-3.928.408-18.445-3.756-27.033-8.636-7.027-4.294-7.144-8.161-5.536-11.441-10.614-1.148-18.58.994-20.024 6.02-2.478 8.623 18.959 23.353 43.37 30.745 25.618 7.756 51.967 2.34 54.896-13.762 1.328-7.315-4.833-12.727-15.225-15.071zm-39.28-15.768c-7.065.511-7.8 1.275-9.123 2.684-1.866 1.988-4.325-2.579-4.325-2.579a3.79 3.79 0 0 1-2.299-4.91c.951-2.197 2.707-1.538 3.257-.855a5.23 5.23 0 0 0 3.953 2.147c1.854-.049 3.994-.439 6.978-.439 3.024 0 5.057 1.13 5.171 2.1.099.828-.245 1.608-3.612 1.852zm15.285-7.035a13.913 13.913 0 0 1-3.486-.51.263.263 0 0 1 .003-.515c2.446-.566 4.097-1.49 3.98-2.364-.153-1.159-3.352-1.79-7.146-1.409q-.624.065-1.213.158l-.031.002a.192.192 0 0 1-.198-.185.187.187 0 0 1 .11-.169 16.439 16.439 0 0 1 5.753-1.537 21.794 21.794 0 0 1 2.049-.114l.349.001c3.92.09 7.059 1.648 7.013 3.48-.046 1.835-3.261 3.25-7.183 3.162z"/><path d="M162.81 124.56c0-5.611-.116-9.737-.343-13.47h9.176l.393 7.961h.3c2.062-5.9 6.949-8.907 11.472-8.907a10.057 10.057 0 0 1 2.486.23v9.981a15.508 15.508 0 0 0-3.193-.301c-5.049 0-8.553 3.212-9.499 8.015a17.511 17.511 0 0 0-.274 3.197V153h-10.604zm36.276 10.337c.28 7.594 6.158 10.916 12.944 10.916a31.9 31.9 0 0 0 11.565-1.94l1.568 7.29a37.9 37.9 0 0 1-14.645 2.658c-13.608 0-21.58-8.404-21.58-21.244 0-11.567 7.016-22.512 20.496-22.512 13.627 0 18.062 11.207 18.062 20.381a23.719 23.719 0 0 1-.376 4.528zm18.43-7.382c.048-3.883-1.642-10.211-8.739-10.211-6.525 0-9.236 5.918-9.712 10.211zm135.451 15.522a68.757 68.757 0 0 0 .611 9.963h-3.82l-.61-6.01h-.197a15.843 15.843 0 0 1-13.372 6.964c-8.44 0-12.367-5.935-12.367-11.527 0-9.682 8.545-15.514 25.608-15.334v-1.121c0-4.15-.807-12.425-10.728-12.36a18.402 18.402 0 0 0-10.529 3.125l-1.32-3.017a22.534 22.534 0 0 1 12.305-3.624c12.103 0 14.419 9.086 14.419 16.58zm-4.147-12.454c-9.133-.263-21.192 1.12-21.192 11.19 0 6.027 3.978 8.737 8.347 8.737a12.64 12.64 0 0 0 12.411-8.41 8.142 8.142 0 0 0 .434-2.513zm20.666-28.771v9.243h11.955v3.365h-11.955v27.26c0 5.334 1.656 8.676 6.161 8.676a14.613 14.613 0 0 0 4.765-.657l.503 3.212a14.981 14.981 0 0 1-5.789 1.008c-3.06 0-5.599-.963-7.237-2.974-1.9-2.203-2.55-5.724-2.55-10.003V114.42h-7.077v-3.365h7.078v-7.712zm17.196 48.955h.551l.832 1.365h.536l-.899-1.393a.816.816 0 0 0 .821-.863c0-.628-.373-.899-1.115-.899h-1.205v3.155h.48zm0-.408v-.978h.65c.328 0 .688.073.688.462 0 .485-.36.516-.767.516z"/><path d="M390.34 150.557a3.093 3.093 0 1 1-3.093-3.092 3.093 3.093 0 0 1 3.093 3.092zm-3.093-2.545a2.542 2.542 0 1 0 2.542 2.547 2.543 2.543 0 0 0-2.542-2.547zM262.56 115.603h-.175c-1.874-3.096-6.007-5.459-11.743-5.459-10.079 0-18.853 8.34-18.79 22.38 0 12.882 7.927 21.417 17.935 21.417 6.048 0 11.103-2.882 13.607-7.577h.189l.475 6.636h9.442c-.195-2.849-.35-7.464-.35-11.754V95.008l-10.59-3.043zm0 19.225a12.509 12.509 0 0 1-.322 3.091 9.394 9.394 0 0 1-9.15 7.542c-6.673 0-10.49-5.625-10.49-13.325 0-7.775 3.783-13.793 10.61-13.793a9.308 9.308 0 0 1 9.113 7.44 14.357 14.357 0 0 1 .238 2.765zm38.61-24.732a15.97 15.97 0 0 0-8.452 2.403 15.357 15.357 0 0 0-5.73 6.05h-.167V98.935l-4.15-1.192V153h4.15v-25.65a11.801 11.801 0 0 1 .564-4.131c1.792-5.218 6.709-9.499 12.65-9.499 8.587 0 11.56 6.886 11.56 14.438V153h4.146v-25.3c0-15.62-10.595-17.604-14.57-17.604z"/></svg>
