<svg xmlns="http://www.w3.org/2000/svg" id="Layer_1" data-name="Layer 1" viewBox="0 0 400 245"><defs><style>.cls-1{fill:#00a1ff}.cls-2{fill:#00c4d6}.cls-3{fill:#006eff}</style></defs><title>tencent-cloud</title><path d="M303.72 130.406c0-.217-.216-.326-.434-.217a15.939 15.939 0 0 1-11.942 5.428c-7.708 0-12.702-5.32-12.702-13.57 0-8.36 4.777-13.571 12.377-13.571a17.113 17.113 0 0 1 11.833 4.994c.217.217.434 0 .434-.217v-4.126a18.566 18.566 0 0 0-12.267-4.56 15.372 15.372 0 0 0-11.725 4.886c-2.823 3.148-4.343 7.491-4.343 12.702 0 10.53 6.623 17.587 16.393 17.587a18.393 18.393 0 0 0 12.377-4.668v-4.668zM94.192 105.436v3.691H105.7v29.638h3.909v-29.638h11.616v-3.691H94.192zM391.983 116.835c-2.063-2.28-5.537-3.04-7.925-3.04a10.967 10.967 0 0 0-8.36 3.475 13.127 13.127 0 0 0-3.256 9.228c0 8.902 5.862 12.81 11.725 12.81a9.845 9.845 0 0 0 7.925-3.365v2.822H396v-33.437h-4.017zm-.108 9.771c0 4.56-2.606 9.12-7.708 9.12-3.8 0-7.926-2.823-7.926-9.011 0-4.56 2.389-9.445 7.6-9.445 5.97.108 8.034 5.102 8.034 9.336zM308.932 105.545h4.017v33.329h-4.017zM192.877 132.686c0-.217-.217-.326-.434-.217a13.6 13.6 0 0 1-8.034 3.257c-5.32 0-8.794-3.583-8.794-9.12s3.474-9.12 8.794-9.12a12.811 12.811 0 0 1 8.034 2.823c.217.11.325 0 .325-.217v-3.69a18.277 18.277 0 0 0-8.685-2.606c-7.382 0-12.376 5.102-12.376 12.81s4.994 12.81 12.376 12.81a15.658 15.658 0 0 0 8.685-2.605l.109-4.125zM140.658 131.926a.233.233 0 0 0-.434-.109 13.248 13.248 0 0 1-8.577 4.234c-2.497 0-4.885-.76-6.08-2.171a8.914 8.914 0 0 1-2.388-6.08h18.673v-.325c0-5.32-.869-8.251-3.257-10.64a10.634 10.634 0 0 0-7.817-3.04c-6.948 0-11.507 4.995-11.507 12.703.217 8.033 4.885 12.81 12.267 12.81a13.332 13.332 0 0 0 9.228-3.582l-.108-3.8zm-2.606-7.6H123.18v-.108a7.945 7.945 0 0 1 2.714-5.32 7.49 7.49 0 0 1 4.777-1.628c4.342 0 7.165 2.714 7.382 7.056zM363.865 126.823c0 6.623-3.8 9.011-7.165 9.011-3.148 0-6.622-2.171-6.622-6.297v-15.09h-3.692v15.09c0 5.863 4.126 9.988 10.205 9.988 3.366 0 5.863-1.085 7.6-3.257v2.606h3.582v-24.427h-3.8l-.108 12.376zM157.485 113.796a9.569 9.569 0 0 0-7.382 2.93v-2.279h-3.8v24.427h3.8v-14.005a8.157 8.157 0 0 1 1.954-5.537 6.722 6.722 0 0 1 5.211-1.845 6.014 6.014 0 0 1 6.08 6.405v14.982h3.908v-15.2a9.645 9.645 0 0 0-2.823-7.273 9.334 9.334 0 0 0-6.948-2.605zM217.955 131.926a.233.233 0 0 0-.434-.109 13.248 13.248 0 0 1-8.577 4.234c-2.497 0-4.885-.76-6.08-2.171a8.914 8.914 0 0 1-2.388-6.08h18.673v-.325c0-5.32-.868-8.251-3.256-10.64a10.634 10.634 0 0 0-7.817-3.04c-6.948 0-11.508 4.995-11.508 12.703.217 8.033 4.886 12.81 12.268 12.81a13.332 13.332 0 0 0 9.228-3.582l-.109-3.8zm-2.605-7.6h-14.874v-.108a7.945 7.945 0 0 1 2.715-5.32 7.49 7.49 0 0 1 4.776-1.628c4.234 0 7.057 2.714 7.383 7.056zM234.674 113.796a9.569 9.569 0 0 0-7.382 2.93v-2.279h-3.8v24.427h3.8v-14.005a8.157 8.157 0 0 1 1.954-5.537 6.722 6.722 0 0 1 5.211-1.845 6.014 6.014 0 0 1 6.08 6.405v14.982h3.8v-15.2a9.645 9.645 0 0 0-2.823-7.273c-1.52-1.737-3.909-2.605-6.84-2.605zM257.038 139.2a20.595 20.595 0 0 0 4.994-1.086v-3.691c0-.217-.217-.326-.325-.217a25.572 25.572 0 0 1-4.126 1.085c-.434.109-.76.109-.977-.108s-.217-.326-.217-.76V118.03h7.057v-3.583h-7.057v-6.622h-4.017v6.513h-4.017v3.583h4.017v16.827a4.336 4.336 0 0 0 1.303 3.366 5.664 5.664 0 0 0 3.365 1.086zM330.21 113.796c-7.056 0-11.833 5.102-11.833 12.81 0 7.6 4.777 12.81 11.833 12.81s11.834-5.102 11.834-12.81c0-7.6-4.777-12.81-11.834-12.81zm-8.25 12.81c0-5.428 3.256-9.01 8.142-9.01s8.142 3.69 8.142 9.119-3.257 9.12-8.142 9.12c-4.777-.11-8.143-3.8-8.143-9.229z"/><path class="cls-1" d="M80.516 118.393a18.904 18.904 0 0 0-25.744-1.321c-1.535 1.236-3.112 2.685-5.115 4.646-1.023.937-29.837 28.984-29.837 28.984a52.619 52.619 0 0 0 5.456.298h36.315c2.77 0 4.604 0 6.564-.128a18.822 18.822 0 0 0 12.105-5.328 19.231 19.231 0 0 0 .256-27.151m-5.54 21.78a12.28 12.28 0 0 1-8.398 3.283c-2.003.085-4.305.085-5.413.085H38.02c8.397-8.184 15.771-15.345 16.581-16.112.767-.724 2.472-2.387 3.964-3.708 3.282-2.899 6.18-3.538 8.226-3.495a11.946 11.946 0 0 1 8.312 3.495 11.565 11.565 0 0 1-.128 16.453"/><path class="cls-2" d="M33.971 116.603a19.107 19.107 0 0 0-24.85 28.941 18.798 18.798 0 0 0 10.657 5.2l7.459-7.203c-1.236 0-2.899-.043-4.433-.085a11.81 11.81 0 0 1-8.397-3.282 11.655 11.655 0 0 1-.213-16.496 11.868 11.868 0 0 1 8.311-3.495 11.992 11.992 0 0 1 7.928 3.197c1.492 1.236 4.774 4.134 6.223 5.456a.16.16 0 0 0 .256 0l5.115-5.03c.085-.085.085-.213 0-.256-2.515-2.301-5.967-5.37-8.056-6.947"/><path class="cls-3" d="M68.88 108.334a25.698 25.698 0 0 0-49.614 4.56 19.808 19.808 0 0 1 3.197-.255 17.276 17.276 0 0 1 4.305.511h.085a18.156 18.156 0 0 1 34.27-3.879.234.234 0 0 0 .213.128 21.192 21.192 0 0 1 7.246-.724c.255 0 .34-.128.298-.341"/></svg>
