<?xml version="1.0" encoding="UTF-8"?>
<svg width="173px" height="36px" viewBox="0 0 173 36" version="1.1" xmlns="http://www.w3.org/2000/svg" xmlns:xlink="http://www.w3.org/1999/xlink">
    <!-- Generator: Sketch 47.1 (45422) - http://www.bohemiancoding.com/sketch -->
    <title>火球财经-logo</title>
    <desc>Created with Sketch.</desc>
    <defs></defs>
    <g id="优化的页面0223" stroke="none" stroke-width="1" fill="none" fill-rule="evenodd">
        <g id="首页-列表行间距" transform="translate(-370.000000, -42.000000)" fill-rule="nonzero">
            <g id="nav">
                <g id="head" transform="translate(0.000000, 30.000000)">
                    <g id="火球财经-logo" transform="translate(370.000000, 12.000000)">
                        <g id="logo-new" fill="#3AA2FF">
                            <path d="M20.3836746,23.9619635 L14.6423562,32.3479944 L14.6362973,32.3434502 C13.9710186,33.3154828 12.8681281,33.8956616 11.6902329,33.8932366 C10.5123377,33.8908115 9.4118456,33.3060961 8.75057503,32.3313324 L8.71068724,32.2722581 L0.689200561,20.420533 C-0.204690662,19.2003653 -0.230803189,17.5487987 0.624067321,16.3009818 L10.6874053,1.60813464 L10.6919495,1.60157083 C11.4068832,0.541303139 12.6352969,-0.0543813971 13.9105368,0.0408077474 C15.1857767,0.135996892 16.3121414,0.907451759 16.861744,2.06210963 C17.4113466,3.2167675 17.2998437,4.57743176 16.5695933,5.62720897 L16.565554,5.63326788 L8.28504908,17.7197756 C8.27453658,17.7335543 8.26476131,17.74788 8.25576438,17.7626928 L8.25576438,17.7652174 C8.16740533,17.9065919 7.94221598,18.359495 8.26434782,18.9058064 L11.2917812,23.3772791 C12.0814586,24.3366059 12.9918092,23.3914165 13.0296774,23.3515288 L15.0927349,20.3392427 C16.1001217,18.8967595 18.0817656,18.5355865 19.5332833,19.5299114 C20.9848009,20.5242364 21.3638468,22.5025394 20.3826648,23.9629734 L20.3836746,23.9619635 Z M40.4618794,19.8116129 L30.395512,34.5059748 C30.3938196,34.5078548 30.3922987,34.5098826 30.3909678,34.5120337 C29.2607832,36.0834731 27.0825523,36.4648008 25.4857404,35.3707574 C23.8889285,34.2767142 23.458011,32.1077489 24.5153436,30.4863955 L24.5198878,30.4803366 C24.5210756,30.4780913 24.5226091,30.4760467 24.5244319,30.4742777 L32.7978682,18.3938288 C32.8019075,18.3882749 32.8109958,18.3756522 32.8231136,18.3564656 C32.8232939,18.3552944 32.8232939,18.3541025 32.8231136,18.3529313 C32.9104628,18.2145863 33.1401964,17.7596634 32.8160449,17.2103226 L29.7946704,12.7358204 C29.004993,11.7764937 28.0941374,12.7211782 28.0562693,12.7610659 L25.991697,15.773352 C25.3445603,16.7183972 24.2424056,17.2464116 23.1004042,17.1584974 C21.9584027,17.0705831 20.9500514,16.3800964 20.4551868,15.3471368 C19.960322,14.3141774 20.0541254,13.0956763 20.7012623,12.1506311 L26.4451052,3.76460028 L26.451164,3.76863955 C27.1166417,2.79666586 28.2196553,2.21660029 29.397614,2.21912636 C30.5755729,2.22165244 31.6760885,2.80644336 32.3373913,3.78126227 L32.3570827,3.81054698 L40.3992707,15.696101 C41.290645,16.9158972 41.3157366,18.5652667 40.4618794,19.8116129 Z" id="Combined-Shape"></path>
                        </g>
                        <g id="火球财经-文字" transform="translate(48.000000, 3.000000)">
                            <g id="Shape">
                                <path d="M17.8604392,14.1644562 C18.5622215,13.1034483 19.3809675,11.6100796 20.3166773,9.68435013 C21.252387,7.75862069 21.9438256,6.1270557 22.390993,4.78965517 C23.4203688,5.39771469 24.41541,6.06211995 25.3715786,6.77984085 C26.3168364,7.4928382 26.8801719,7.93421751 27.061585,8.10397878 C27.2429981,8.27374005 27.3331742,8.43846154 27.3321133,8.59814324 C27.3321133,8.75729443 27.2732336,8.86392573 27.1562699,8.91644562 C27.0393062,8.96896552 26.8101528,8.99602122 26.470401,8.99602122 C26.1306493,8.99602122 25.7415659,9.12334218 25.3063335,9.37798408 C24.8711012,9.63262599 23.9497136,10.3090186 22.5326225,11.403183 C21.1155315,12.4973475 19.6459262,13.6933687 18.1150541,14.9896552 C18.961992,17.3136456 20.3432954,19.4059916 22.1475175,21.097878 C23.9648313,22.8098143 26.3932209,24.2721485 29.4326862,25.4848806 C29.7939211,25.6339523 29.9745385,25.7509284 29.9745385,25.835809 C29.9745385,25.9206897 29.7623594,26.0055703 29.3380013,26.0904509 C27.6586039,26.4087533 26.3083492,27.4076923 25.2872374,29.0872679 C25.1811479,29.2787798 25.0323573,29.3742706 24.8408657,29.3737401 C24.310418,29.3737401 22.8546043,27.9275862 20.4734246,25.0352785 C18.0922449,22.1429708 16.7218332,18.1671088 16.3621897,13.1076923 C15.7871844,17.1469496 14.5960641,20.2132626 12.7888288,22.3066313 C10.9815935,24.4 8.49936346,26.1214854 5.34213877,27.4710875 C2.18438362,28.8201592 0.43549756,29.494695 0.0954805856,29.494695 C0.0318268619,29.494695 0,29.4835544 0,29.4628647 C0,29.3774536 0.191491619,29.2183024 0.574474857,28.9854111 C3.38107363,27.3488064 5.51771695,25.9196286 6.98440484,24.697878 C8.45109272,23.4761273 9.59924676,22.0732095 10.428867,20.4891247 C11.2584872,18.9055703 11.8276575,16.9180371 12.1363781,14.5265252 C12.454575,11.982546 12.6097825,9.42082022 12.6010503,6.85702918 C12.6010503,4.13607427 12.5909718,1.85066313 12.5708148,0.000795755968 C13.7793581,0.0959994869 14.9819879,0.255375466 16.1736155,0.478249337 C17.1284214,0.669761273 17.6811479,0.824137931 17.831795,0.94137931 C17.9710695,1.04060468 18.0540057,1.20086626 18.0545831,1.37188329 C18.0545831,1.54217507 17.9270104,1.67480106 17.6718651,1.76976127 C17.4167197,1.86472149 17.2414067,2.06657825 17.1459262,2.37533156 C17.0504456,2.68355438 16.9918311,3.18753316 16.9700827,3.8872679 L16.8738065,7.68700265 C16.9369298,10.131565 17.2658073,12.2907162 17.8604392,14.1644562 Z" fill="#183885"></path>
                                <path d="M6.89369828,6.53554377 C7.06344154,6.53554377 7.4777212,7.20530504 8.13653724,8.54482759 C8.79535328,9.88435013 9.12449607,11.1493369 9.12396563,12.3397878 C9.12396563,13.5307692 8.78898791,14.4875332 8.11903246,15.2100796 C7.44907702,15.932626 6.66772756,16.2938992 5.77498409,16.2938992 C5.1156376,16.2938992 4.58943348,16.1129973 4.19637174,15.7511936 C3.80330999,15.3893899 3.60677912,14.9055703 3.60677912,14.2997347 C3.60677912,13.6938992 4.00010609,13.0509284 4.78676003,12.3708223 C5.57341396,11.6907162 6.14788882,11.0419098 6.5101846,10.4244032 C6.87141948,9.80795756 7.05230214,9.2127321 7.05283259,8.63872679 C7.05336304,8.06472149 7.0162317,7.61830239 6.94143857,7.2994695 C6.88622304,7.09596042 6.84894907,6.88800287 6.83004456,6.67798408 C6.83004456,6.58408488 6.85073202,6.53554377 6.89369828,6.53554377 Z" fill="#183885"></path>
                                <path d="M35.5919796,5.10875332 L32.8811267,5.10875332 C32.4713919,5.10376015 32.0702117,5.22610111 31.7329726,5.45888594 L30.9046785,3.95888594 C31.4326243,4.0238684 31.9640932,4.05602568 32.4960216,4.05517241 L39.5448759,4.05835544 C40.1612561,2.95331565 40.5227562,2.32095491 40.6293762,2.16127321 C40.7148525,2.01320708 40.8729679,1.92215209 41.0439211,1.92254642 C41.2136643,1.92254642 41.6600361,2.19363395 42.3830363,2.73580902 C42.9538723,3.15276193 43.5023214,3.59953638 44.026098,4.07427056 C44.3974114,4.42493369 44.5830681,4.68541114 44.5830681,4.85570292 C44.5830681,5.02599469 44.3809675,5.11087533 43.9767664,5.11034483 L39.6403565,5.11034483 C39.5065293,5.32799637 39.3049967,5.49572505 39.0666773,5.58779841 L39.0674729,12.2546419 L39.4183641,12.2546419 C39.8427223,11.4472149 40.1344685,10.9432361 40.2936028,10.7427056 C40.4527371,10.5421751 40.5962232,10.4411141 40.7240611,10.4395225 C40.9792065,10.4395225 41.4892319,10.8222812 42.2541375,11.5877984 C43.0190431,12.3533156 43.4014959,12.8530504 43.4014959,13.0870027 C43.4014959,13.2360743 43.2102695,13.3103448 42.8278167,13.3098143 L39.0674729,13.3098143 L39.0674729,19.2413793 C41.9584129,18.4557029 43.5529387,18.0628647 43.8510503,18.0628647 C43.9353915,18.0628647 43.9783577,18.0843501 43.9783577,18.1265252 C43.9783577,18.1901857 43.7871313,18.338992 43.4046785,18.5729443 C41.9162423,19.4657825 40.0506578,20.6718833 37.8079249,22.1912467 C35.565192,23.7106101 34.112561,24.7448276 33.4500318,25.2938992 C33.300976,25.4212202 33.1840123,25.4848806 33.0991407,25.4848806 C33.0140038,25.4848806 32.9185232,25.3997347 32.8119032,25.229443 C32.7052833,25.0591512 32.4824952,24.5594164 32.1427435,23.7302387 C31.7851576,22.8474841 31.4871729,21.9417381 31.2507957,21.0190981 C32.8023552,20.7007958 34.2480904,20.3824934 35.5880013,20.064191 L35.5880013,13.3002653 L33.0068428,13.3002653 C32.597022,13.2955056 32.1958343,13.4181269 31.8586887,13.6511936 L31.0311903,12.1551724 C31.5590667,12.2212536 32.0905379,12.254474 32.6225334,12.2546419 L35.5880013,12.2546419 L35.5919796,5.10875332 Z" fill="#183885"></path>
                                <path d="M48.260662,7.97824934 L42.9662635,7.96870027 C42.5564301,7.96307452 42.1549623,8.0848623 41.8173138,8.31724138 L40.9922024,6.81724138 C41.5200951,6.88305855 42.0515665,6.91601327 42.5835455,6.91591512 L48.2590707,6.92625995 L48.2662317,2.90848806 C48.2662317,1.84748011 48.2466051,0.90132626 48.207352,0.0700265252 C49.1621579,0.157029178 50.0387227,0.270291777 50.8370465,0.409814324 C51.6353703,0.54933687 52.0973902,0.672413793 52.2231063,0.779045093 C52.3372512,0.860500536 52.4076553,0.98988176 52.4140675,1.12997347 C52.4140675,1.38514589 52.2223106,1.59734748 51.8387969,1.76657825 L51.8292489,6.93262599 L56.3574157,6.94058355 C56.9541693,6.04880637 57.3591661,5.48090186 57.5724061,5.23687003 C57.7856461,4.9928382 57.9559198,4.87082228 58.0832272,4.87082228 C58.2954063,4.87082228 58.9109909,5.30238727 59.9299809,6.16551724 C60.9489709,7.02864721 61.4582007,7.55039788 61.4576703,7.73076923 C61.4576703,7.91167109 61.2454912,8.00159151 60.821133,8.0005305 L51.8929026,7.98461538 C52.3772014,10.3453581 53.0007426,12.3769231 53.7635264,14.0793103 C55.1702737,11.9769231 56.0455124,10.394695 56.3892425,9.33262599 C57.3016126,9.95119363 58.1296414,10.5639257 58.8733291,11.1708223 C59.6170168,11.7777188 60.0678973,12.1718833 60.2259707,12.3533156 C60.385105,12.534748 60.4646722,12.6785146 60.4646722,12.7846154 C60.4646722,13.0190981 60.2198706,13.1355438 59.7302673,13.1339523 C58.6248143,13.1339523 56.8478146,13.8960212 54.399268,15.4201592 C56.0516126,18.5501326 58.2901018,20.9352785 61.1147358,22.5755968 C61.4117865,22.7464191 61.5603119,22.8689655 61.5603119,22.9432361 C61.5603119,23.0175066 61.4011776,23.0862069 61.082909,23.1493369 C59.6581265,23.4448276 58.4770847,24.1875332 57.5397836,25.3774536 C57.433694,25.5047745 57.3220348,25.568435 57.2048059,25.568435 C57.0875769,25.568435 56.9440908,25.5045093 56.7743475,25.3766578 C56.6040738,25.2488064 56.1216317,24.535809 55.327021,23.2376658 C54.4924335,21.8570826 53.7955241,20.3978154 53.2463399,18.8809019 C52.6522385,17.2750663 52.1774878,15.4076923 51.8220878,13.2787798 L51.7982177,25.6519894 C51.7982177,26.5007958 51.7385423,27.1437666 51.6191916,27.5809019 C51.5102057,28.0040232 51.2569308,28.3758139 50.9030872,28.6320955 C50.5407914,28.8973475 49.9663166,29.1196286 49.1796626,29.298939 C48.3930087,29.4782493 47.8508912,29.5676393 47.55331,29.5671088 C47.2551984,29.5671088 47.0480586,29.5188329 46.9318905,29.4222812 C46.8157225,29.3257294 46.7361553,29.1400531 46.6931891,28.865252 C46.5870995,28.0785146 46.343624,27.4986737 45.9627626,27.1257294 C45.5819011,26.7527851 45.0562275,26.4753316 44.3857416,26.2933687 C43.7163166,26.1119363 43.3816041,25.9891247 43.3816041,25.9249337 C43.3816041,25.8607427 43.9237216,25.8297082 45.0079567,25.8318302 C46.0921918,25.8318302 46.8417144,25.7960212 47.2565245,25.7244032 C47.6713346,25.6527851 47.9365585,25.5201592 48.0521961,25.3265252 C48.1688945,25.1355438 48.2280395,24.8061008 48.2296308,24.3381963 L48.2423616,17.1310345 C45.6643857,20.1241379 43.6826331,22.7355438 42.2971038,24.965252 C42.1692659,25.1774536 42.0682156,25.2835544 41.9939529,25.2835544 C41.9270407,25.2853001 41.8609499,25.2685002 41.8029917,25.2350133 C41.749947,25.203183 41.4635052,24.8679045 40.9436665,24.2291777 C40.4238277,23.5904509 39.8668576,22.8241379 39.2727562,21.9302387 C41.8045831,20.702122 44.7626247,18.964191 48.146881,16.7164456 L48.2423616,16.8755968 L48.260662,7.97824934 Z" fill="#183885"></path>
                                <path d="M42.8922661,9.54270557 C43.1044452,9.54270557 43.6571717,9.70769231 44.5504456,10.0376658 C45.4437195,10.3676393 46.1290579,10.7771883 46.6064609,11.266313 C47.0777599,11.7395613 47.3362764,12.3841976 47.3225652,13.0519894 C47.3225652,13.7533156 47.1151602,14.327321 46.7003501,14.7740053 C46.28554,15.2206897 45.8232548,15.4437666 45.3134946,15.4432361 C44.8032039,15.4432361 44.4151814,15.2782493 44.1494271,14.9482759 C43.8836728,14.6183024 43.7510609,14.2941645 43.7515913,13.9758621 C43.7503924,13.6703364 43.7826772,13.3655994 43.8478676,13.0671088 C43.913077,12.7686211 43.945362,12.4638821 43.9441439,12.1583554 C43.9441439,11.3721485 43.6258752,10.6493369 42.989338,9.98992042 C42.8190643,9.82015915 42.7341927,9.70318302 42.7347231,9.63899204 C42.7331318,9.57453581 42.7856461,9.54270557 42.8922661,9.54270557 Z" fill="#183885"></path>
                                <path d="M52.5246658,1.86047745 C53.7574263,1.86047745 54.7671335,2.04615385 55.5537874,2.41750663 C56.3404413,2.78885942 56.7329726,3.42201592 56.7313813,4.31697613 C56.7402312,4.82502654 56.5513658,5.31664217 56.2046467,5.68806366 C55.8540208,6.07055703 55.4713028,6.26180371 55.0564927,6.26180371 C54.6732691,6.27160728 54.2976545,6.15376038 53.9887015,5.92679045 C53.6905899,5.70344828 53.5417993,5.20901857 53.5423297,4.44350133 C53.5428602,3.67798408 53.1715468,2.933687 52.4283896,2.21061008 C52.3217696,2.10477454 52.2692553,2.01962865 52.2692553,1.95517241 C52.2692553,1.89071618 52.3551878,1.8596817 52.5246658,1.86047745 Z" fill="#183885"></path>
                                <path d="M89.2242202,7.38700265 C89.7769467,6.19655172 90.1808827,5.60132626 90.436028,5.60132626 C90.669425,5.60132626 91.33885,6.08514589 92.444303,7.05278515 C93.549756,8.0204244 94.1022173,8.62122016 94.1016868,8.85517241 C94.1016868,9.08965517 93.8895077,9.2066313 93.4651496,9.2061008 L89.2242202,9.2061008 L89.2202419,25.5015915 C89.2202419,26.7557029 88.9916189,27.627321 88.534373,28.1164456 C88.0771271,28.6055703 87.4286548,28.9562334 86.5889561,29.168435 C85.7487269,29.3806366 85.1429557,29.4867374 84.7716423,29.4867374 C84.4003289,29.4867374 84.1825801,29.2527851 84.1183959,28.7848806 C84.0335243,28.1482759 83.7839487,27.632626 83.369669,27.237931 C82.9553893,26.8432361 82.1949926,26.464191 81.0884787,26.1007958 C80.7267133,25.9729443 80.5460959,25.8612732 80.5466264,25.7657825 C80.5471568,25.6702918 80.7651708,25.6331565 81.2006684,25.6543767 C81.6361659,25.6761273 81.9708784,25.6867374 82.2048059,25.6862069 C83.4163484,25.6862069 84.2401337,25.5535809 84.6761617,25.2883289 C85.1121897,25.0230769 85.3302037,24.5289125 85.3302037,23.8058355 L85.3302037,14.7811671 C84.4369298,16.7795756 83.3895608,18.4323607 82.1880968,19.7395225 C80.9866327,21.0466844 79.3759283,22.2740053 77.3559835,23.4214854 C78.2710057,24.1466844 78.7285169,24.9071618 78.7285169,25.7029178 C78.7285169,26.4986737 78.5476342,27.1352785 78.1858689,27.6127321 C77.8241035,28.0901857 77.3244218,28.3289125 76.6868237,28.3289125 C75.6259283,28.3289125 75.0042436,27.7068966 74.8217696,26.4628647 C74.6392956,25.2188329 74.3525886,24.2779841 73.9616486,23.6403183 C73.5680564,23.0037135 72.9888076,22.4201592 72.223902,21.8896552 C71.7342987,23.6753316 71.0431254,25.1209549 70.1503819,26.2265252 C69.2632166,27.3264141 68.1689295,28.2415709 66.9295035,28.9201592 C65.6749947,29.6098143 64.9413855,29.9546419 64.728676,29.9546419 C64.6857097,29.9546419 64.6650223,29.9435013 64.6650223,29.9228117 C64.6650223,29.8374005 64.8350308,29.6251989 65.1750477,29.2862069 C67.003501,27.501061 68.2901018,25.6251989 69.0348504,23.6586207 C69.779599,21.6920424 70.1525037,18.4029178 70.1535646,13.7912467 C70.1535646,11.7503979 70.0798324,9.06100796 69.9323679,5.72307692 C70.7052997,5.72152993 71.4778175,5.75897805 72.2469764,5.83527851 C72.9805856,5.91007958 73.4216529,5.97931034 73.5701782,6.04297082 C73.7189688,6.1066313 73.7937619,6.19734748 73.7929663,6.31432361 C73.7921706,6.43129973 73.691916,6.56976127 73.4898154,6.72891247 C73.2877148,6.88806366 73.1866645,7.30822281 73.1866645,7.98859416 L73.2495226,11.7517241 C73.2495226,15.8763926 72.9405368,19.1503979 72.3225652,21.5737401 C74.0443985,21.8082228 75.5323043,22.2856764 76.7862826,23.0061008 C80.2734458,19.371618 82.5066306,14.769496 83.485837,9.19973475 L80.3628262,9.19973475 C79.9530915,9.19474158 79.5519113,9.31708254 79.2146722,9.54986737 L78.3863781,8.05066313 C78.9143203,8.11568434 79.4457916,8.14784176 79.9777212,8.1469496 L85.3349777,8.1469496 L85.3349777,2.8535809 C85.3349777,1.79257294 85.314025,0.846419098 85.2721197,0.0151193634 C87.0151708,0.100530504 88.2107999,0.223076923 88.859007,0.382758621 C89.5072141,0.542440318 89.8313176,0.728116711 89.8313176,0.939787798 C89.8313176,1.15198939 89.6292171,1.38567639 89.2250159,1.64084881 L89.2242202,7.38700265 Z" fill="#183885"></path>
                                <path d="M68.6903246,2.66180371 L68.6903246,2.62599469 L74.2067155,2.62599469 C74.448168,2.13668346 74.7197487,1.66282856 75.0198918,1.2071618 C75.2219924,0.920159151 75.3866964,0.776657825 75.5140038,0.776657825 C75.6413113,0.776657825 75.9391576,0.915649867 76.407543,1.19363395 C76.8748674,1.47002653 77.3955018,1.81485411 77.9694462,2.22811671 C78.5433906,2.64137931 78.8834076,2.9066313 78.9894971,3.02387268 C79.0915124,3.13123632 79.1484685,3.27364178 79.1486314,3.42175066 C79.1486314,3.57082228 78.8834076,3.77267905 78.3529599,4.02732095 L78.3529599,17.2297082 C78.3529599,18.2291777 78.3633036,18.9188329 78.3839911,19.2986737 L78.415818,20.3832891 C78.415818,20.5748011 78.3097284,20.7448276 78.0975493,20.8933687 C77.8853703,21.0419098 77.4079673,21.1960212 76.6653405,21.3557029 C75.9227138,21.5148541 75.3392213,21.5944297 74.9148631,21.5944297 C74.7233715,21.5944297 74.6276257,21.4137931 74.6276257,21.0525199 L74.6323997,3.67241379 L69.084182,3.67241379 C69.084182,3.94880637 68.9884362,4.10795756 68.7969446,4.14986737 L68.7921706,21.4026525 C68.7941012,21.6181244 68.6869127,21.8199477 68.5073202,21.938992 C68.3264375,22.0774536 67.9331105,22.2047745 67.3273393,22.3209549 C66.7126638,22.4386908 66.088131,22.4973135 65.4622852,22.4960212 C65.271324,22.4960212 65.1750477,22.4108753 65.1750477,22.2405836 L65.2394971,20.7413793 C65.281933,19.7 65.3034161,18.7538462 65.3039465,17.9029178 L65.3039465,4.63687003 C65.3039465,3.3403183 65.2829938,2.23474801 65.2410885,1.32015915 C66.4550515,1.58043559 67.6195287,2.03338068 68.6903246,2.66180371 Z" fill="#183885"></path>
                                <path d="M102.615372,12.365252 C100.595428,13.0872679 98.9584659,13.7665782 97.7044876,14.403183 C97.6068248,14.4583026 97.4980918,14.4909259 97.386219,14.4986737 C97.3008169,14.4986737 97.2212497,14.434748 97.1475175,14.3068966 C97.0737853,14.1790451 96.8719499,13.5689655 96.5420115,12.4766578 C96.2126034,11.3816976 96.0478994,10.771618 96.0478994,10.6464191 C96.0467252,10.5228709 96.0797725,10.4014093 96.14338,10.2954907 C96.1963468,10.1974111 96.2897439,10.1275741 96.3987906,10.1045093 C97.1212603,10.0201592 97.64216,9.77586207 97.9614895,9.37161804 C98.280819,8.96737401 98.7534479,7.91856764 99.3793762,6.22519894 C100.044614,4.40160266 100.572816,2.53088818 100.95958,0.628647215 C101.981036,0.904912568 102.982459,1.25054245 103.956875,1.66312997 C104.93449,2.07798408 105.508434,2.34907162 105.678708,2.47639257 C105.848982,2.60371353 105.933853,2.72068966 105.933323,2.82732095 C105.933323,2.93342175 105.779228,3.04509284 105.471038,3.16233422 C105.159145,3.28167298 104.876437,3.46645649 104.641948,3.70424403 C104.397411,3.94880637 103.711543,4.78302387 102.584341,6.20689655 C101.45714,7.63076923 100.330204,9.14005305 99.2035328,10.734748 L103.635423,10.5127321 C104.720189,8.47188329 105.464672,6.90954907 105.868873,5.82572944 C106.761617,6.25013263 107.670274,6.72334218 108.594844,7.24535809 C109.519414,7.76737401 110.055962,8.09708223 110.204488,8.23448276 C110.353013,8.3729443 110.427276,8.50557029 110.427276,8.63236074 C110.427276,8.84456233 110.225175,8.96153846 109.820974,8.98328912 C109.416773,9.00503979 108.874655,9.35570292 108.194621,10.0352785 L101.050286,17.5949602 C102.644812,17.5949602 104.069064,17.5633952 105.323043,17.5002653 L108.415818,17.3411141 C108.691651,17.3411141 108.829832,17.3891247 108.830363,17.4851459 C108.830893,17.5811671 108.628793,17.6928382 108.224061,17.8201592 C103.631975,19.1994695 100.37927,20.3679045 98.4659453,21.3254642 C98.3439995,21.3959511 98.2083176,21.4393739 98.0681095,21.4527851 C97.9726289,21.4527851 97.9036707,21.3891247 97.8612349,21.2618037 L97.2875557,19.4442971 C96.9263208,18.3175066 96.7457034,17.6901857 96.7457034,17.5623342 C96.7457034,17.4344828 96.873276,17.3602122 97.1284214,17.3395225 C98.1150973,17.2601749 99.0494848,16.8631507 99.7915341,16.2079576 C100.568109,15.5352785 101.509389,14.2543767 102.615372,12.365252 Z" fill="#183885"></path>
                                <path d="M96.1075748,24.9278515 C100.401549,24.3973475 104.791534,23.4843501 109.27753,22.1888594 C109.373615,22.1485596 109.476503,22.1269535 109.580681,22.1251989 C109.676162,22.1251989 109.723902,22.1625995 109.723902,22.2366048 C109.723902,22.3106101 109.617282,22.4013263 109.405633,22.5079576 C104.005145,25.3557029 100.284585,27.5657825 98.2439529,29.1381963 C98.0948971,29.2655172 97.9779334,29.3291777 97.8930617,29.3291777 C97.8021076,29.326182 97.7184709,29.2785547 97.669478,29.2018568 C97.6058243,29.1164456 97.3880755,28.5859416 97.0162317,27.6103448 C96.6443879,26.634748 96.3415022,25.7405836 96.1075748,24.9278515 Z" fill="#183885"></path>
                                <path d="M112.562062,19.2572944 L109.882241,19.2572944 C109.472506,19.2523013 109.071326,19.3746422 108.734087,19.6074271 L107.714036,18.1082228 C108.241982,18.1732032 108.77345,18.2053605 109.305379,18.2045093 L116.57543,18.2045093 C117.383302,16.8442971 117.834182,16.1055703 117.928071,15.9883289 C117.996642,15.8862576 118.108551,15.8216313 118.231222,15.8132626 C118.443401,15.8132626 119.18205,16.2493369 120.447167,17.1214854 C121.712285,17.993634 122.344579,18.5679045 122.344048,18.8442971 C122.344048,19.1206897 122.131869,19.2588859 121.707511,19.2588859 L117.179344,19.2588859 C117.073255,19.5771883 116.828718,19.8108753 116.445735,19.9599469 L116.445735,27.6453581 L118.714195,27.6453581 C119.649905,25.838992 120.287768,24.9355438 120.627785,24.9350133 C120.88293,24.9350133 121.425048,25.2647215 122.254137,25.9241379 L124.198759,27.4233422 C124.687301,27.806366 124.931572,28.1145889 124.931572,28.3480106 C124.931572,28.5814324 124.708254,28.6984085 124.261617,28.698939 L106.62874,28.6941645 C106.218967,28.688908 105.817709,28.8112728 105.480586,29.0442971 L104.460535,27.5450928 C104.988481,27.6100733 105.519949,27.6422305 106.051878,27.6413793 L112.556493,27.6413793 L112.562062,19.2572944 Z" fill="#183885"></path>
                                <path d="M115.944462,10.1681698 C119.026894,10.5310345 121.23223,11.1427056 122.560471,12.003183 C123.888712,12.8636605 124.551772,13.8366048 124.54965,14.9220159 C124.54965,15.5819629 124.326066,16.1241379 123.878899,16.5485411 C123.431731,16.9729443 122.868396,17.1851459 122.188892,17.1851459 C121.976713,17.1851459 121.705655,17.0628647 121.375716,16.8183024 C121.045778,16.5737401 120.828029,16.3238727 120.72247,16.0687003 C119.555485,13.5387268 117.791481,11.7310345 115.430458,10.6456233" fill="#3AA2FF"></path>
                                <path d="M115.433641,10.6464191 L115.19494,10.862069 C113.386739,12.4695043 111.383403,13.8429003 109.232177,14.9498674 C106.967165,16.1169761 105.696743,16.7005305 105.42091,16.7005305 C105.335773,16.7005305 105.292807,16.6639257 105.292807,16.5891247 C105.292807,16.5143236 105.42091,16.3925729 105.675525,16.2222812 C110.565722,13.0350133 113.914969,9.09204244 115.723265,4.3933687 L108.612349,4.3933687 C108.202626,4.38928848 107.801639,4.51184835 107.464195,4.74429708 L106.571451,3.24588859 C107.099403,3.31080397 107.630868,3.342961 108.162794,3.34217507 L115.496499,3.34217507 C116.070974,2.44933687 116.42213,1.933687 116.549968,1.79522546 C116.656765,1.6672214 116.813767,1.59175933 116.980426,1.58832891 C117.139561,1.58832891 117.479578,1.73713528 118.000477,2.03474801 C118.521377,2.33236074 119.191067,2.74721485 120.009548,3.27931034 C120.827498,3.80981432 121.343094,4.18116711 121.556334,4.3933687 C121.767982,4.6066313 121.874602,4.79761273 121.874602,4.96790451 C121.874602,5.24403183 121.608848,5.39363395 121.078931,5.41432361 C120.688385,5.43844453 120.31498,5.58331782 120.010344,5.82891247 C119.680936,6.08355438 119.080204,6.72015915 118.208148,7.73872679 C117.497836,8.58715757 116.741612,9.39606032 115.942871,10.1618037" fill="#183885"></path>
                            </g>
                        </g>
                    </g>
                </g>
            </g>
        </g>
    </g>
</svg>