<svg xmlns="http://www.w3.org/2000/svg" id="Layer_1" data-name="Layer 1" viewBox="0 0 400 245"><defs><style>.cls-1{fill:#00964c}</style></defs><title>NGINX_logo</title><path class="cls-1" d="M24.459 108.619v1.433q0 21.96-.005 43.92c-.003 4.864-2.325 7.845-7.045 8.707a9.5 9.5 0 0 1-9.174-2.742 7.165 7.165 0 0 1-1.906-4.829c-.07-2.142-.037-4.288-.037-6.433q-.003-26.97.01-53.942c.001-1.394.127-2.792.248-4.183a7.31 7.31 0 0 1 3.602-5.617c5.744-3.766 13.17-3.241 18.355 3.187 7.867 9.756 15.892 19.385 23.865 29.056q8.143 9.878 16.328 19.723c.25.303.53.583 1.04 1.138.053-.851.111-1.358.112-1.865q.007-21.775.01-43.55a18.624 18.624 0 0 1 .157-3.45c.787-4.128 3.572-6.445 7.905-6.585a15.07 15.07 0 0 1 3.796.321c3.895.887 6.045 3.814 6.08 8.195.037 4.702.01 9.403.01 14.105q.001 23.568-.014 47.137a16.682 16.682 0 0 1-.348 3.552c-.936 4.234-4.11 6.659-8.622 6.936a16.168 16.168 0 0 1-14.08-6.009q-6.657-7.895-13.24-15.852-13.057-15.846-26.062-31.736c-.204-.248-.44-.47-.66-.706zM179.962 112.652h-1.464c-5.362-.001-10.723-.023-16.084.02a1.476 1.476 0 0 1-1.45-.85c-2.385-3.903-4.817-7.78-7.182-11.696a2.138 2.138 0 0 0-2.095-1.15q-12.557.047-25.115-.011a1.913 1.913 0 0 0-1.94 1.152q-5.99 11.1-12.063 22.156a1.858 1.858 0 0 0 .02 2.041q6.437 11.562 12.806 23.16a1.998 1.998 0 0 0 2.017 1.214q11.444-.07 22.888-.007a1.897 1.897 0 0 0 1.88-1.042c2.032-3.443 4.122-6.852 6.186-10.277.185-.308.331-.64.6-1.168-.629-.04-1.092-.093-1.555-.094q-11.073-.01-22.146-.01a10.442 10.442 0 0 1-5.535-1.484 7.51 7.51 0 0 1 .407-13.174 13.526 13.526 0 0 1 6.564-1.45q23.197.07 46.394.224c.484.002.968 0 1.675 0-.293.58-.48.973-.686 1.354q-10.799 19.888-21.58 39.786a2.048 2.048 0 0 1-2.112 1.23q-21.714-.053-43.427-.002a2.001 2.001 0 0 1-2.038-1.17q-10.404-18.833-20.897-37.618a2.527 2.527 0 0 1 .014-2.812q9.955-18.235 19.802-36.528a1.966 1.966 0 0 1 2.008-1.205q22.703.06 45.407.033a1.706 1.706 0 0 1 1.717.869q8.268 13.857 16.585 27.686c.121.203.208.427.4.823zM240.501 137.597c.522-.49.775-.683.975-.921q20.162-23.929 40.28-47.894c2.37-2.84 4.959-5.04 8.682-5.606a12.938 12.938 0 0 1 11.462 3.59c2.024 1.96 2.164 4.666 2.17 7.262q.06 27.523.016 55.047c-.001 1.974-.01 3.954-.153 5.922-.3 4.128-3.178 6.649-7.72 7.034-2.7.23-5.33-.083-7.557-1.972a7.331 7.331 0 0 1-2.708-5.843q-.04-16.947-.028-33.894-.002-5.195 0-10.39v-1.305l-.475-.303c-.294.415-.562.852-.886 1.242q-18.501 22.254-37.028 44.486a35.863 35.863 0 0 1-4.562 4.686c-4.32 3.575-9.324 4.107-14.56 2.632a7.553 7.553 0 0 1-5.56-7.233 50.354 50.354 0 0 1-.085-2.967q-.008-29.193.004-58.387a17.167 17.167 0 0 1 .21-3.444 7.324 7.324 0 0 1 6.87-6.24 13.446 13.446 0 0 1 3.938.073c4.403.828 6.703 3.713 6.707 8.29q.022 22.08.008 44.16v1.975zM366.924 122.925c.395.415.725.777 1.07 1.122q9.796 9.803 19.59 19.607a17.383 17.383 0 0 1 4.91 8.152c1.804 7.381-4.102 13.104-11.46 11.105a18.206 18.206 0 0 1-8.08-5.05q-9.718-9.704-19.404-19.44c-.884-.895-1.363-.87-2.232.008q-9.746 9.852-19.584 19.611a17.363 17.363 0 0 1-9.226 5.167 8.72 8.72 0 0 1-10.389-7.979c-.261-3.683 1.183-6.754 3.379-9.547a30.551 30.551 0 0 1 2.413-2.65q9.479-9.507 18.979-18.992c.344-.345.672-.705 1.062-1.116-.398-.42-.727-.784-1.072-1.13l-19.504-19.516a17.519 17.519 0 0 1-4.966-8.124c-1.858-7.47 4.014-13.234 11.44-11.226a17.755 17.755 0 0 1 7.897 4.885q9.81 9.788 19.58 19.615c.886.896 1.36.868 2.228-.01q9.745-9.852 19.584-19.612a17.399 17.399 0 0 1 8.982-5.124 8.72 8.72 0 0 1 10.649 8.177c.2 3.631-1.284 6.654-3.47 9.397a32.33 32.33 0 0 1-2.421 2.643q-9.436 9.462-18.892 18.904c-.345.346-.672.71-1.063 1.123zM210.57 138.426c0 5.483.057 10.967-.025 16.448a8.524 8.524 0 0 1-3.16 6.718 7.43 7.43 0 0 1-11.684-3.067 13.388 13.388 0 0 1-1.006-4.91c-.087-10.676-.036-21.354-.062-32.031-.003-.896.216-1.23 1.169-1.216 4.369.065 8.74.05 13.109.088 1.678.014 1.69.053 1.691 1.769q.002 8.1 0 16.201zM210.602 100.291c0 3.629-.032 7.257.02 10.885.016 1.033-.209 1.44-1.354 1.422-4.452-.068-8.906-.05-13.358-.01-.933.01-1.291-.192-1.284-1.222.046-6.844.002-13.689.046-20.533a14.13 14.13 0 0 1 .478-3.41 7.717 7.717 0 0 1 7.92-6.106 7.834 7.834 0 0 1 7.21 6.392 16.465 16.465 0 0 1 .307 3.306c.04 3.091.014 6.184.015 9.276z"/></svg>
