<?xml version="1.0" ?><!DOCTYPE svg  PUBLIC '-//W3C//DTD SVG 1.1//EN'  'http://www.w3.org/Graphics/SVG/1.1/DTD/svg11.dtd'><svg height="512px" style="enable-background:new 0 0 512 512;" version="1.1" viewBox="0 0 512 512" width="512px" xml:space="preserve" xmlns="http://www.w3.org/2000/svg" xmlns:xlink="http://www.w3.org/1999/xlink"><g id="形状_1_5_" style="enable-background:new    ;"><g id="形状_1"><g><path d="M331.82,120.482c-0.08-2.871-2.28-5.403-7.957-4.718     c-9.237,1.116-19.657,7.296-26.74,12.729c-5.842,4.476-10.362,7.635-15.081,5.795c-6.73-2.674,3.57-19.656,6.188-23.838     c4.064-6.512,6.068-15.617-4.238-13.777c-9.915,1.754-18.297,10.129-27.56,19.407c-4.143,4.156-9.143,11.471-14.727,12.413     c-11.777,1.989-5.636-14.192-3.285-20.45c3.625-9.703,5.488-17.447-0.125-18.332c-12.636-2.008-24.225,12.804-31.528,23.325     c-4.098,5.896-12.118,23.406-20.71,18.295c-3.776-2.248,0.502-14.151-1.352-19.514c-1.997-5.835-9.656-1.068-13.848,5.488     c-3.703,5.762-5.801,10.873-8.38,17.146c-1.399,3.358-4.529,14.453-9.972,12.793c-4.629-1.415-3.308-9.45-3.15-12.848     c0.071-1.809,0.243-4.717-1.055-5.785c-2.383-1.968-7.493,2.179-11.259,9.514c-4.986,9.67-9.208,22.721-9.741,23.753     c-34.549,67.304,25.198,91.11,73.962,92.322c53.749,1.344,138.987-27.56,118.302-90.665c-1.518-4.652-3.657-8.468-4.506-11.267     c-1.589-5.236,3.695-10.803,9.528-18.107C327.921,129.987,331.914,124.524,331.82,120.482z M283.576,196.412     c-2.58,26.787-40.784,48.235-82.181,47.189c-38.385-0.968-63.953-21.174-59.7-44.597c4.134-22.785,35.477-42.457,72.375-44.618     C253.689,152.042,286.092,170.465,283.576,196.412z" style="fill-rule:evenodd;clip-rule:evenodd;fill:#DE2126;"/></g></g></g><g id="形状_1_4_" style="enable-background:new    ;"><g id="形状_1_1_"><g><path d="M207.111,172.312c-17.533,0.959-33.321,14.861-35.807,31.371     c-2.529,16.827,9.555,30.799,27.615,30.869c18.689,0.064,35.987-14.688,37.961-32.581     C238.837,184.436,225.244,171.313,207.111,172.312z M204.846,209.683c-0.714,6.228-6.125,11.387-12.012,11.496     c-5.829,0.085-9.869-4.821-9.083-10.907c0.765-6.052,5.976-11.1,11.709-11.328C201.292,198.684,205.516,203.471,204.846,209.683z      M211.207,200.138c-0.226,2.004-1.957,3.673-3.875,3.702c-1.855,0.032-3.177-1.54-2.917-3.506     c0.244-1.966,1.918-3.586,3.767-3.664C210.067,196.584,211.435,198.141,211.207,200.138z" style="fill-rule:evenodd;clip-rule:evenodd;fill:#231815;"/></g></g></g><g id="形状_1_3_" style="enable-background:new    ;"><g id="形状_1_2_"><g><path d="M94.549,275.186c4.602-1.51,9.972-2.24,16.048-2.24     c7.328,0,14.287,1.053,20.82,3.217c6.534,2.146,12.092,4.929,16.686,8.335h3.247l7.894-26.601     c-4.024-1.793-9.818-3.483-17.432-5.088c-7.634-1.612-15.818-2.391-24.639-2.391c-18.628,0-34.307,3.357-47.044,10.081     c-12.745,6.707-20.607,15.136-23.611,25.278c-2.327,7.886-1.699,14.436,1.926,19.732c3.616,5.294,10.41,9.202,20.388,11.679     c3.616,0.936,7.753,1.722,12.369,2.413c4.591,0.629,8.208,1.242,10.857,1.816c5.559,1.054,9.214,2.163,10.97,3.332     c1.752,1.127,2.279,2.998,1.5,5.576c-0.849,2.862-3.278,5.039-7.288,6.496c-3.995,1.468-9.711,2.186-17.149,2.186     c-5.684,0-10.843-0.496-15.529-1.525c-4.656-1.023-8.743-2.281-12.233-3.705c-4.089-1.634-7.148-3.145-9.216-4.56     c-2.069-1.399-3.886-2.698-5.417-3.868h-3.477l-8.223,27.764c4.568,2.139,10.835,4.048,18.864,5.795     c8.049,1.76,17.304,2.626,27.785,2.626c19.004,0,34.925-3.311,47.844-10.002c12.91-6.637,20.971-15.419,24.201-26.284     c2.201-7.431,1.659-13.634-1.627-18.627c-3.294-4.953-9.567-8.603-18.822-10.905c-4.176-1.007-8.39-1.816-12.661-2.484     c-4.244-0.66-8.191-1.338-11.839-2.036c-6.621-1.283-10.686-2.618-12.18-3.925c-1.511-1.313-1.888-3.207-1.148-5.716     C87.223,278.803,89.942,276.703,94.549,275.186z M348.977,260.357c-5.143-6.629-19.775-9.939-32.488-9.939     c-44.55,0-76.385,13.423-76.385,13.423l-29.949,97.276h38.001l23.792-77.173c4.794-2.178,9.119-3.78,12.941-4.787     c3.828-0.991,7.492-1.479,10.938-1.479c4.796,0,8.387,0.526,10.771,1.571c2.367,1.071,3.893,2.771,4.575,5.089     c0.584,1.988,0.457,5.096-0.306,9.324c-0.809,4.214-1.863,8.452-3.16,12.722l-16.96,54.732h37.983l21.945-71.055     C354.692,276.892,354.11,266.985,348.977,260.357z M478.096,259.161c-7.839-5.896-22.495-8.844-44.014-8.844     c-22.315,0-43.435,4.15-47.688,5.103l-7.939,25.577c0,0,19.646-7.572,40.906-7.572c10.348,0,17.865,1.164,22.528,3.365     c4.67,2.226,6.132,6.25,4.427,12.063l-12.762,42.283c-3.603,2.234-7.548,4.034-11.842,5.434     c-4.277,1.36-8.319,2.044-12.101,2.044c-4.779,0-8.185-0.283-10.26-0.888c-2.053-0.582-3.696-1.501-4.968-2.768     c-1.276-1.235-1.968-2.549-1.968-3.915c-0.009-1.377,0.283-3.162,0.937-5.339c0.997-3.279,2.775-5.961,5.392-7.98     c2.573-2.021,5.929-3.571,10.021-4.647c3.331-0.857,8.08-1.628,14.229-2.272c2.201-0.252,4.128-0.385,6.109-0.542l5.888-19.964     c-7.398,0.511-14.773,0.99-21.889,1.777c-10.691,1.188-19.979,3.169-27.793,6.008c-7.936,2.799-14.515,6.643-19.809,11.51     c-5.306,4.883-9.104,11.174-11.375,18.845c-2.838,9.627-1.399,17.521,4.3,23.717c5.741,6.187,19.695,9.307,30.878,9.307     c53.513,0,80.693-28.509,80.693-28.509l14.183-45.972C487.932,274.322,485.888,265.076,478.096,259.161z M174.064,263.549     c-35.405,154.563-23.815,157.67-23.815,157.67c14.845,7.201,67.101-155.735,67.101-155.735     C196.669,269.689,174.064,263.549,174.064,263.549z" style="fill-rule:evenodd;clip-rule:evenodd;fill:#231815;"/></g></g></g></svg>